<svg viewBox="0 0 481 211" fill="none" xmlns="http://www.w3.org/2000/svg">
<title>Cover illustration of drawings floating away from an easel</title>
<g id="Cover-Pile">
<g id="Group 32">
<path id="Vector" d="M261.148 100.176C275.319 101.041 289.541 100.032 303.448 97.1758C307.068 96.4292 310.655 95.5458 314.208 94.5258C314.608 94.3433 315.032 94.2187 315.468 94.1559C315.848 94.2759 315.828 94.4458 315.988 94.8158C316.248 95.3758 316.518 95.9259 316.798 96.4759C317.445 97.8619 318.258 99.1647 319.218 100.356C323.031 104.679 327.946 107.886 333.438 109.636C336.744 110.572 339.976 111.752 343.108 113.166C346.076 114.634 348.867 116.436 351.428 118.536L351.598 118.116C347.929 117.895 344.247 118.208 340.668 119.046C337.808 119.726 335.068 120.726 332.138 121.146C328.508 121.569 324.848 121.683 321.198 121.486C317.574 121.425 313.956 121.178 310.358 120.746C309.178 120.596 307.998 120.416 306.818 120.216C306.188 120.106 304.888 119.586 304.308 119.776C303.938 119.906 303.518 120.546 303.228 120.776C302.606 121.354 301.937 121.879 301.228 122.346C299.568 123.433 297.697 124.158 295.738 124.474C293.779 124.789 291.775 124.687 289.858 124.176C286.728 123.283 283.796 121.803 281.218 119.816C279.18 118.401 277.32 116.745 275.678 114.886C273.888 112.776 272.378 110.456 270.548 108.366C267.745 105.233 264.674 102.352 261.368 99.7559C261.118 99.5559 260.758 99.9058 261.018 100.106C264.079 102.523 266.945 105.177 269.588 108.046C271.398 110.046 272.928 112.216 274.588 114.326C277.912 118.473 282.219 121.725 287.118 123.786C290.338 125.225 293.94 125.576 297.378 124.786C299.019 124.347 300.567 123.615 301.948 122.626C302.495 122.237 303.02 121.816 303.518 121.366C303.738 121.116 303.979 120.885 304.238 120.676C304.728 120.336 305.238 120.526 305.788 120.676C313.374 122.036 321.091 122.519 328.788 122.116C332.183 121.866 335.538 121.229 338.788 120.216C342.949 118.998 347.289 118.504 351.618 118.756C351.668 118.757 351.718 118.743 351.76 118.716C351.803 118.689 351.836 118.649 351.855 118.602C351.875 118.556 351.88 118.505 351.869 118.455C351.859 118.406 351.834 118.361 351.798 118.326C349.09 116.096 346.125 114.196 342.968 112.666C339.648 111.248 336.245 110.033 332.778 109.026C328.91 107.713 325.35 105.623 322.318 102.886C320.966 101.746 319.77 100.435 318.758 98.9858C317.713 97.3388 316.81 95.6059 316.058 93.8058C316.027 93.7599 315.982 93.7247 315.93 93.7051C315.878 93.6854 315.822 93.6822 315.768 93.6958C298.056 98.8626 279.583 100.92 261.168 99.7758C260.858 99.6258 260.858 100.176 261.148 100.176Z" class="outline"/>
<g id="Group">
<path id="Vector_2" d="M319.428 109.176C318.978 105.266 295.538 99.3756 292.268 102.056C290.438 103.556 294.088 108.396 299.708 110.516C304.948 112.516 307.898 111.436 320.588 112.726C325.808 113.246 329.338 113.626 329.448 114.646C329.558 115.666 325.608 117.716 321.678 117.476C317.478 117.216 314.338 114.526 314.158 114.816C313.978 115.106 318.568 117.686 318.158 118.886C317.748 120.086 312.628 120.266 308.628 117.826C305.828 116.116 306.078 114.606 303.748 113.346C298.928 110.716 291.048 113.696 291.378 115.346C291.708 116.996 299.718 118.916 300.778 118.036C302.078 116.956 294.778 110.366 288.498 110.436C284.418 110.496 280.928 113.376 282.098 114.626C284.998 117.756 319.998 114.046 319.428 109.176Z" fill="#B8E6CA"/>
<path id="Vector_3" d="M319.578 109.116C319.278 107.216 316.048 106.116 314.578 105.476C311.139 104.071 307.572 102.999 303.928 102.276C300.848 101.495 297.673 101.158 294.498 101.276C293.668 101.268 292.855 101.505 292.158 101.956C291.258 102.746 291.718 104.066 292.218 104.956C294.218 108.426 298.388 110.566 302.158 111.446C305.228 112.156 308.458 112.076 311.598 112.226C314.438 112.352 317.275 112.559 320.108 112.846C322.788 113.106 325.798 113.116 328.358 114.026C328.598 114.106 329.138 114.266 329.258 114.566C329.478 115.136 328.518 115.676 328.158 115.896C326.703 116.715 325.084 117.2 323.418 117.316C320.569 117.453 317.747 116.717 315.328 115.206C315.158 115.116 313.898 114.206 314.028 114.966C314.078 115.266 314.768 115.636 315.028 115.806C315.822 116.349 316.577 116.947 317.288 117.596C318.128 118.426 318.288 119.116 316.998 119.436C315.78 119.681 314.526 119.681 313.308 119.436C310.405 118.985 307.781 117.448 305.968 115.136C303.168 111.616 297.968 111.656 294.078 113.136C293.228 113.456 291.478 114.136 291.268 115.136C291.088 116.056 292.428 116.606 293.078 116.896C294.749 117.624 296.512 118.119 298.318 118.366C298.958 118.456 300.618 118.816 301.028 118.066C301.438 117.316 300.288 116.176 299.848 115.716C298.397 114.233 296.707 113.006 294.848 112.086C291.098 110.166 285.918 109.346 282.588 112.596C280.768 114.376 282.428 115.336 284.188 115.596C286.87 115.982 289.585 116.079 292.288 115.886C295.858 115.756 299.438 115.416 302.978 114.936C306.365 114.519 309.722 113.884 313.028 113.036C314.968 112.516 317.438 111.936 318.948 110.516C319.156 110.358 319.325 110.154 319.439 109.92C319.554 109.685 319.612 109.427 319.608 109.166C319.608 108.976 319.298 108.976 319.308 109.166C319.428 110.656 316.758 111.506 315.738 111.876C313.104 112.776 310.398 113.445 307.648 113.876C301.336 115.076 294.922 115.655 288.498 115.606C286.698 115.606 284.298 115.696 282.648 114.816C280.778 113.816 283.788 111.896 284.708 111.476C287.104 110.409 289.822 110.327 292.278 111.246C294.468 111.995 296.502 113.141 298.278 114.626C298.838 115.086 301.278 116.976 300.688 117.876C300.098 118.776 297.068 117.776 296.348 117.596C294.968 117.256 292.788 116.836 291.788 115.716C290.788 114.596 294.048 113.336 294.788 113.096C296.969 112.365 299.302 112.217 301.558 112.666C302.785 112.909 303.927 113.471 304.868 114.296C305.618 115.006 306.148 115.916 306.868 116.646C308.579 118.207 310.71 119.232 312.998 119.596C313.998 119.786 319.818 120.276 317.878 117.796C316.896 116.71 315.761 115.773 314.508 115.016C314.308 114.876 314.068 114.766 314.378 115.016C314.688 115.266 314.898 115.296 315.148 115.436C315.912 115.873 316.7 116.267 317.508 116.616C319.77 117.573 322.262 117.848 324.678 117.406C326.078 117.146 328.578 116.556 329.388 115.186C330.608 113.106 323.288 112.846 322.438 112.756C317.718 112.256 313.008 111.956 308.278 111.756C305.568 111.76 302.872 111.363 300.278 110.576C297.897 109.791 295.728 108.47 293.938 106.716C293.068 105.846 290.848 103.346 292.348 102.126C293.13 101.676 294.028 101.471 294.928 101.536C296.312 101.497 297.697 101.574 299.068 101.766C302.515 102.219 305.919 102.952 309.248 103.956C312.201 104.684 315.029 105.851 317.638 107.416C318.268 107.836 319.088 108.416 319.218 109.206C319.318 109.386 319.608 109.306 319.578 109.116Z" class="outline"/>
</g>
<path id="Vector_4" d="M292.668 125.066C307.596 126.286 322.622 124.775 337.008 120.606C337.043 120.573 337.067 120.53 337.079 120.483C337.09 120.437 337.087 120.388 337.072 120.342C337.056 120.297 337.027 120.257 336.989 120.228C336.951 120.198 336.906 120.18 336.858 120.176C322.513 124.329 307.532 125.833 292.648 124.616C292.328 124.616 292.328 125.086 292.648 125.116L292.668 125.066Z" class="outline"/>
</g>
<g id="Group 36">
<path id="Vector_5" d="M8.84197 25.9461C11.9706 39.4472 13.6236 53.2481 13.772 67.1061C13.772 67.1857 13.8036 67.262 13.8598 67.3183C13.9161 67.3745 13.9924 67.4061 14.072 67.4061C14.1515 67.4061 14.2278 67.3745 14.2841 67.3183C14.3404 67.262 14.372 67.1857 14.372 67.1061C14.2219 53.1943 12.5622 39.3398 9.42197 25.7861C9.33197 25.4061 8.75197 25.5661 8.84197 25.9461V25.9461Z" class="outline"/>
<g id="Group 35">
<path id="Vector_6" d="M9.24202 26.286C26.7179 27.9256 44.2731 28.5667 61.822 28.206C61.9016 28.206 61.9779 28.1744 62.0342 28.1182C62.0904 28.0619 62.122 27.9856 62.122 27.906C62.122 27.8265 62.0904 27.7502 62.0342 27.6939C61.9779 27.6376 61.9016 27.606 61.822 27.606C44.2731 27.9667 26.7179 27.3256 9.24202 25.686C8.85202 25.686 8.85202 26.246 9.24202 26.286V26.286Z" class="outline"/>
<path id="Vector_7" d="M61.702 28.0062C61.882 31.0062 62.072 33.9562 62.252 36.9262C62.252 37.3062 62.872 37.3162 62.852 36.9262C62.672 33.9262 62.482 30.9862 62.302 28.0062C62.302 27.6262 61.682 27.6262 61.702 28.0062Z" class="outline"/>
<path id="Vector_8" d="M35.642 25.586L34.942 16.586L34.772 14.366C34.7172 14.0356 34.6938 13.7008 34.702 13.366C34.7113 13.226 34.7499 13.0896 34.8154 12.9656C34.8809 12.8415 34.9717 12.7326 35.082 12.646C35.2636 12.6107 35.4504 12.6107 35.632 12.646C37.112 12.646 38.632 12.786 40.082 12.856L39.782 12.556L40.372 24.166C40.372 24.556 40.992 24.556 40.972 24.166L40.382 12.556C40.3795 12.4772 40.3471 12.4024 40.2913 12.3466C40.2356 12.2909 40.1608 12.2585 40.082 12.256L37.562 12.126C36.7735 12.019 35.9773 11.9789 35.182 12.006C33.682 12.206 34.182 13.936 34.182 15.006L35.002 25.556C35.002 25.936 35.632 25.936 35.602 25.556L35.642 25.586Z" class="outline"/>
<path id="Vector_9" d="M39.732 103.246C33.5853 120.039 27.5853 136.879 21.732 153.766C20.0587 158.619 18.392 163.469 16.732 168.316C16.612 168.686 17.192 168.846 17.312 168.476C23.072 151.556 28.982 134.689 35.042 117.876C36.782 113.043 38.5353 108.219 40.302 103.406C40.432 103.036 39.852 102.886 39.722 103.246H39.732Z" class="outline"/>
<path id="Vector_10" d="M43.882 102.546C51.2078 122.927 60.219 142.662 70.822 161.546C73.9087 167.066 77.122 172.513 80.462 177.886C80.672 178.216 81.192 177.886 80.982 177.586C69.4085 158.993 59.375 139.485 50.982 119.256C48.682 113.689 46.5187 108.066 44.492 102.386C44.362 102.026 43.782 102.186 43.912 102.546H43.882Z" class="outline"/>
<path id="Vector_11" d="M41.712 102.166C39.0454 124.086 36.4687 146.02 33.982 167.966C33.2754 174.246 32.5754 180.52 31.882 186.786C31.882 187.166 32.442 187.166 32.482 186.786C34.902 164.826 37.422 142.883 40.042 120.956C40.7954 114.696 41.552 108.433 42.312 102.166C42.312 101.776 41.752 101.786 41.712 102.166V102.166Z" class="outline"/>
<path id="Vector_12" d="M15.652 101.666C14.7064 95.9968 14.1982 90.2633 14.132 84.5161C13.9801 80.5177 14.3329 76.5162 15.182 72.6061C15.6194 70.5713 16.4862 68.6535 17.7244 66.9807C18.9626 65.3079 20.5437 63.9187 22.362 62.9061C24.01 62.0347 25.8172 61.5058 27.675 61.3511C29.5327 61.1965 31.4026 61.4193 33.172 62.0061C36.562 63.0061 39.562 65.0061 42.562 66.7261C42.6083 66.7518 42.6605 66.7651 42.7135 66.7649C42.7665 66.7647 42.8186 66.7508 42.8647 66.7248C42.9108 66.6987 42.9495 66.6612 42.9771 66.6159C43.0046 66.5706 43.0201 66.519 43.022 66.4661C43.242 58.1061 46.422 49.9961 53.262 44.8661C58.4892 41.0251 64.884 39.1102 71.362 39.4461C73.296 39.6532 75.203 40.0621 77.052 40.6661L76.872 40.2261C70.3421 48.9166 66.0478 59.0786 64.3669 69.8182C62.6859 80.5578 63.6698 91.5459 67.232 101.816C67.352 102.186 67.932 102.026 67.802 101.656C64.8542 93.105 63.6884 84.0409 64.3763 75.0222C65.0642 66.0035 67.5913 57.2211 71.802 49.2161C73.4209 46.1737 75.2836 43.2675 77.372 40.5261C77.395 40.4864 77.4087 40.4419 77.4119 40.3961C77.415 40.3502 77.4076 40.3043 77.3902 40.2618C77.3728 40.2193 77.3459 40.1813 77.3115 40.1509C77.2772 40.1204 77.2363 40.0982 77.192 40.0861C75.4656 39.5355 73.696 39.1307 71.902 38.8761C69.2213 38.6834 66.5268 38.8787 63.902 39.4561C59.7764 40.2557 55.9009 42.0271 52.5966 44.6235C49.2924 47.22 46.6546 50.5667 44.902 54.3861C43.282 58.2106 42.4194 62.313 42.362 66.4661L42.812 66.2161C40.1411 64.4918 37.3235 63.006 34.392 61.7761C30.9245 60.368 27.0498 60.3394 23.562 61.6961C14.872 65.0561 13.642 74.4761 13.562 82.5961C13.4998 89.0392 14.0152 95.475 15.102 101.826C15.162 102.206 15.742 102.036 15.672 101.666H15.652Z" class="outline"/>
<path id="Vector_13" d="M67.772 101.656C54.596 98.2891 40.9027 97.4409 27.412 99.1561C23.3476 99.6781 19.3149 100.423 15.332 101.386C15.2589 101.409 15.1975 101.46 15.1604 101.527C15.1234 101.594 15.1134 101.673 15.1326 101.747C15.1518 101.821 15.1987 101.885 15.2637 101.926C15.3287 101.967 15.4068 101.981 15.482 101.966C28.2791 98.8362 41.5413 98.077 54.612 99.7261C58.9916 100.302 63.3328 101.14 67.612 102.236C67.992 102.326 68.152 101.746 67.772 101.656V101.656Z" class="outline"/>
<path id="Vector_14" d="M59.282 40.8461C54.462 42.6061 49.6953 44.4994 44.982 46.5261C41.812 47.8861 38.562 49.2261 35.562 50.8361C29.872 53.8361 24.182 57.5861 19.882 62.4261C16.9829 65.7614 15.0378 69.8174 14.252 74.1661C14.182 74.5461 14.762 74.7061 14.832 74.3261C15.5358 70.3119 17.2573 66.5452 19.832 63.3861C22.3937 60.4842 25.3294 57.9353 28.562 55.8061C33.2082 52.7108 38.1408 50.0687 43.292 47.9161C48.6253 45.5761 54.0153 43.4094 59.462 41.4161C59.822 41.2861 59.672 40.7061 59.302 40.8461H59.282Z" class="outline"/>
<g id="Group_2">
<path id="Vector_15" d="M51.7219 53.7162C51.7219 53.3662 52.1519 48.7862 50.7219 47.9962C50.5894 47.9133 50.4381 47.8651 50.2819 47.8562C49.772 47.8562 49.2819 48.2462 47.8119 50.5462C47.4519 51.1162 47.0719 51.7262 46.5419 52.6862C46.0891 53.4532 45.6785 54.2444 45.3119 55.0562C44.767 56.4927 44.3259 57.9665 43.9919 59.4662C43.7619 60.3862 43.6419 60.8462 43.5419 61.3262C43.2697 62.4433 43.0858 63.5802 42.9919 64.7262C42.9219 65.8362 42.9919 66.3162 42.7219 66.4662C42.4519 66.6162 41.8919 66.2162 41.1919 65.7062C40.2919 65.0662 39.2619 64.6362 38.3319 64.0462C36.2019 62.7062 28.4019 59.6862 26.6719 62.0062C25.7519 63.2162 26.7319 65.7262 27.6719 67.1662C30.2719 71.1662 36.5919 73.0962 41.5119 71.3662C49.5619 68.4862 50.382 57.0062 56.362 57.0562C59.242 57.0562 62.0119 59.6962 61.7819 61.0562C61.4819 62.9262 55.7819 62.2162 54.8819 64.7762C53.8119 67.7762 60.5719 72.4462 59.8119 73.6362C59.0519 74.8262 52.2219 69.1762 47.0719 71.4362C42.2219 73.5662 40.0719 82.2562 42.0719 83.9262C44.0719 85.5962 50.9919 81.4862 50.6319 79.5562C50.2019 77.2162 38.5019 75.1662 34.8819 80.3362C32.5319 83.6962 33.6719 90.0162 35.7619 90.5762C41.1519 92.0662 51.1019 60.2362 51.7219 53.7162Z" fill="#FFF9B9"/>
<path id="Vector_16" d="M51.842 53.7161C51.942 52.6661 52.002 46.0261 49.482 48.0661C48.7574 48.7723 48.1499 49.5891 47.682 50.4861C46.922 51.6961 46.192 52.9361 45.542 54.2161C44.5757 56.4049 43.874 58.7011 43.452 61.0561C43.1787 62.1575 42.9849 63.277 42.872 64.4061C42.812 65.1061 43.022 66.5561 41.872 66.0561C41.172 65.7561 40.512 65.1161 39.872 64.7461C38.1285 63.7244 36.302 62.8514 34.412 62.1361C32.312 61.4061 25.842 59.3461 26.252 63.6461C26.732 68.6461 32.252 71.6461 36.742 72.0261C41.232 72.4061 45.142 70.0261 47.812 66.3761C49.042 64.6861 50.032 62.8461 51.172 61.0961C52.172 59.6261 53.312 57.9761 55.062 57.3961C56.2988 57.0335 57.6279 57.1624 58.772 57.7561C59.772 58.2161 62.332 59.8861 61.632 61.3061C61.272 62.0461 60.022 62.2161 59.302 62.3961C58.3839 62.5803 57.4813 62.8344 56.602 63.1561C52.602 64.8361 56.112 68.8061 57.892 70.8061C58.4983 71.4189 59.0442 72.0886 59.522 72.8061C59.642 72.9961 59.952 73.4261 59.722 73.6661C59.492 73.9061 58.822 73.6661 58.562 73.5261C56.632 72.8661 54.852 71.8361 52.872 71.2861C50.8132 70.5665 48.5541 70.685 46.582 71.6161C44.8568 72.6467 43.4861 74.1779 42.652 76.0061C41.7781 77.679 41.2766 79.5212 41.182 81.4061C41.182 82.4061 41.272 83.8861 42.402 84.3361C43.792 84.8861 45.642 84.0461 46.862 83.4261C48.082 82.8061 50.002 81.7461 50.592 80.3261C51.592 77.9761 46.392 77.3261 45.092 77.1461C41.602 76.7561 36.942 77.1461 34.742 80.3161C33.585 82.2245 33.1653 84.49 33.562 86.6861C33.732 87.9661 34.182 90.0961 35.562 90.6861C37.212 91.3661 38.772 89.1761 39.562 88.0661C41.4677 85.1762 43.0473 82.084 44.272 78.8461C47.2909 71.7033 49.6735 64.3079 51.392 56.7461C51.6191 55.7562 51.7927 54.7548 51.912 53.7461C51.912 53.5861 51.682 53.5861 51.662 53.7461C51.3413 56.1177 50.8262 58.4589 50.122 60.7461C49.182 64.2261 48.122 67.6761 46.922 71.0861C45.672 74.6961 44.322 78.2761 42.722 81.7461C41.6527 84.4073 40.1934 86.8945 38.392 89.1261C37.8767 89.8241 37.1279 90.3138 36.282 90.5061C34.472 90.6361 33.932 87.6561 33.792 86.3661C33.542 84.0561 33.932 81.3661 35.632 79.6861C37.1569 78.3237 39.0919 77.5074 41.132 77.3661C43.0399 77.1369 44.9727 77.2247 46.852 77.6261C47.852 77.8561 49.942 78.2561 50.452 79.3561C51.102 80.7761 48.212 82.3561 47.292 82.9161C46.102 83.5761 43.482 84.9161 42.192 83.8461C40.902 82.7761 41.532 80.3461 41.842 79.0761C42.3316 76.9699 43.3309 75.016 44.752 73.3861C48.242 69.5561 53.042 71.3861 57.092 73.1361C57.682 73.3961 59.182 74.3361 59.832 73.8661C60.482 73.3961 59.712 72.5461 59.432 72.1761C57.792 70.0161 52.062 65.1761 56.952 63.2761C58.772 62.5861 63.742 62.3661 61.282 59.2761C59.102 56.5861 55.282 56.0561 52.822 58.5261C50.362 60.9961 49.002 64.6161 46.702 67.3661C45.18 69.2472 43.1165 70.6149 40.7911 71.2839C38.4657 71.9529 35.9909 71.8908 33.702 71.1061C31.1201 70.4067 28.8939 68.7655 27.462 66.5061C26.862 65.4361 26.082 63.7261 26.542 62.5061C26.942 61.4061 28.222 61.2761 29.222 61.3061C33.222 61.3861 37.452 63.4761 40.762 65.6261C42.042 66.4561 42.972 67.3861 43.062 65.3861C43.2836 62.7894 43.7865 60.2243 44.562 57.7361C45.182 55.5469 46.115 53.4587 47.332 51.5361C47.982 50.4561 50.282 46.0261 51.332 49.1461C51.7184 50.638 51.7966 52.193 51.562 53.7161C51.562 53.8761 51.832 53.8761 51.842 53.7161Z" class="outline"/>
</g>
</g>
</g>
<g id="Group 31">
<path id="Vector_17" d="M339.747 179.701C336.328 175.183 332.656 170.863 328.747 166.761L328.527 167.271L354.127 165.631C354.507 165.631 354.507 165.011 354.127 165.031L328.527 166.671C328.47 166.676 328.416 166.697 328.37 166.73C328.324 166.764 328.288 166.81 328.266 166.862C328.245 166.915 328.238 166.973 328.247 167.029C328.256 167.085 328.28 167.138 328.317 167.181C332.194 171.258 335.837 175.552 339.227 180.041C339.457 180.351 339.977 180.041 339.747 179.741V179.701Z" class="outline"/>
<path id="Vector_18" d="M357.757 167.611C352.294 173.715 346.308 179.33 339.867 184.391C339.657 184.561 339.867 184.901 340.077 184.901C358.15 184.728 376.217 184.968 394.277 185.621C394.323 185.62 394.367 185.608 394.408 185.587C394.448 185.566 394.484 185.536 394.511 185.5C394.539 185.463 394.559 185.421 394.568 185.377C394.578 185.332 394.577 185.286 394.567 185.241L392.377 179.451C392.247 179.091 391.667 179.241 391.797 179.601L393.987 185.401L394.277 185.021C376.217 184.355 358.15 184.115 340.077 184.301L340.297 184.811C346.749 179.753 352.749 174.141 358.227 168.041C358.487 167.751 358.057 167.321 357.797 167.611H357.757Z" class="outline"/>
<path id="Vector_19" d="M351.417 185.321L351.107 188.031L351.407 187.731L305.257 188.271L305.477 188.791L317.697 177.041L320.697 174.151C321.767 173.151 322.767 171.741 324.387 171.791C327.267 171.881 330.147 172.131 333.017 172.291C333.407 172.291 333.407 171.711 333.017 171.691C330.017 171.521 327.017 171.111 324.017 171.191C323.569 171.212 323.13 171.328 322.73 171.531C322.33 171.735 321.978 172.021 321.697 172.371C320.567 173.441 319.457 174.521 318.327 175.601L305.047 188.341C305.006 188.383 304.978 188.436 304.967 188.494C304.955 188.552 304.961 188.611 304.984 188.666C305.006 188.72 305.044 188.766 305.093 188.8C305.141 188.833 305.198 188.851 305.257 188.851L351.407 188.311C351.486 188.309 351.561 188.276 351.616 188.221C351.672 188.165 351.704 188.09 351.707 188.011L352.017 185.301C352.017 184.921 351.467 184.921 351.417 185.301V185.321Z" class="outline"/>
<path id="Vector_20" d="M353.767 188.892C370.147 189.558 386.52 190.288 402.887 191.081C403.277 191.081 403.277 190.502 402.887 190.482C386.514 189.662 370.14 188.932 353.767 188.292C353.377 188.292 353.377 188.872 353.767 188.892Z" class="outline"/>
<path id="Vector_21" d="M406.307 178.971C422.442 178.711 438.58 179.332 454.647 180.831C455.027 180.831 455.027 180.261 454.647 180.231C438.58 178.732 422.442 178.111 406.307 178.371C406.227 178.371 406.151 178.403 406.095 178.459C406.039 178.516 406.007 178.592 406.007 178.671C406.007 178.751 406.039 178.827 406.095 178.884C406.151 178.94 406.227 178.971 406.307 178.971V178.971Z" class="outline"/>
<path id="Vector_22" d="M451.227 168.521C451.595 172.613 452.569 176.627 454.117 180.431C454.267 180.781 454.787 180.481 454.637 180.131C453.135 176.421 452.188 172.508 451.827 168.521C451.827 168.141 451.187 168.131 451.227 168.521V168.521Z" class="outline"/>
<path id="Vector_23" d="M391.327 188.041L445.497 187.671C445.877 187.671 445.887 187.061 445.497 187.071L391.327 187.441C391.247 187.441 391.171 187.473 391.115 187.529C391.059 187.586 391.027 187.662 391.027 187.741C391.027 187.821 391.059 187.897 391.115 187.954C391.171 188.01 391.247 188.041 391.327 188.041V188.041Z" class="outline"/>
<path id="Vector_24" d="M371.287 166.771C369.027 169.591 366.774 172.415 364.527 175.241C364.486 175.283 364.458 175.336 364.447 175.394C364.435 175.452 364.441 175.511 364.464 175.566C364.486 175.62 364.524 175.667 364.573 175.7C364.621 175.733 364.678 175.751 364.737 175.751L421.387 176.751L437.607 177.041C437.687 177.041 437.763 177.01 437.819 176.954C437.875 176.897 437.907 176.821 437.907 176.741C437.907 176.662 437.875 176.586 437.819 176.529C437.763 176.473 437.687 176.441 437.607 176.441L380.957 175.441L364.737 175.151L364.947 175.661C367.207 172.841 369.46 170.018 371.707 167.191C371.947 166.891 371.527 166.471 371.287 166.771V166.771Z" class="outline"/>
<path id="Vector_25" d="M363.227 168.222C359.728 172.507 355.964 176.568 351.957 180.382C351.917 180.425 351.89 180.478 351.88 180.536C351.869 180.594 351.875 180.654 351.897 180.708C351.919 180.763 351.956 180.81 352.004 180.844C352.052 180.878 352.108 180.898 352.167 180.902L399.167 178.562C399.547 178.562 399.557 177.942 399.167 177.962L352.167 180.302L352.377 180.812C356.388 176.995 360.155 172.93 363.657 168.642C363.897 168.352 363.477 167.922 363.227 168.222V168.222Z" class="outline"/>
<path id="Vector_26" d="M399.457 178.371L400.457 176.251C400.485 176.218 400.505 176.179 400.517 176.137C400.528 176.095 400.53 176.051 400.523 176.008C400.515 175.965 400.499 175.924 400.474 175.888C400.449 175.852 400.417 175.822 400.379 175.8C400.342 175.778 400.3 175.764 400.256 175.76C400.213 175.756 400.169 175.761 400.128 175.775C400.087 175.79 400.049 175.813 400.018 175.843C399.987 175.874 399.963 175.911 399.947 175.951C399.617 176.661 399.277 177.361 398.947 178.071C398.907 178.14 398.896 178.222 398.917 178.299C398.938 178.376 398.988 178.442 399.057 178.481C399.126 178.521 399.208 178.532 399.285 178.511C399.362 178.491 399.427 178.44 399.467 178.371H399.457Z" class="outline"/>
<path id="Vector_27" d="M419.367 190.401L480.267 189.801C480.347 189.801 480.423 189.77 480.479 189.714C480.535 189.657 480.567 189.581 480.567 189.501C480.567 189.422 480.535 189.346 480.479 189.289C480.423 189.233 480.347 189.201 480.267 189.201L419.367 189.801C418.987 189.801 418.977 190.411 419.367 190.401Z" class="outline"/>
<path id="Vector_28" d="M445.967 186.962C444.724 185.612 443.616 184.145 442.657 182.582C442.457 182.252 441.937 182.582 442.137 182.882C443.12 184.492 444.263 185.999 445.547 187.382C445.807 187.672 446.227 187.242 445.967 186.962V186.962Z" class="outline"/>
<path id="Vector_29" d="M397.637 160.811C408.264 160.478 418.894 160.565 429.527 161.071C429.907 161.071 429.907 160.491 429.527 160.471C418.907 159.971 408.277 159.885 397.637 160.211C397.557 160.211 397.481 160.243 397.425 160.299C397.369 160.356 397.337 160.432 397.337 160.511C397.337 160.591 397.369 160.667 397.425 160.724C397.481 160.78 397.557 160.811 397.637 160.811V160.811Z" class="outline"/>
<path id="Vector_30" d="M429.347 161.041C431.044 166.663 433.755 171.926 437.347 176.571C437.577 176.881 438.097 176.571 437.867 176.271C434.298 171.671 431.603 166.455 429.917 160.881C429.906 160.843 429.889 160.808 429.864 160.777C429.84 160.745 429.81 160.719 429.775 160.7C429.741 160.68 429.703 160.668 429.664 160.663C429.625 160.658 429.585 160.661 429.547 160.671C429.509 160.682 429.473 160.7 429.442 160.724C429.411 160.748 429.385 160.779 429.365 160.813C429.346 160.847 429.333 160.885 429.328 160.924C429.324 160.964 429.326 161.003 429.337 161.041H429.347Z" class="outline"/>
<path id="Vector_31" d="M406.807 176.352L406.017 178.442C406.001 178.518 406.013 178.598 406.052 178.667C406.09 178.735 406.153 178.786 406.227 178.812C406.304 178.83 406.385 178.819 406.454 178.78C406.522 178.741 406.574 178.677 406.597 178.602L407.387 176.512C407.398 176.474 407.401 176.434 407.396 176.394C407.391 176.355 407.378 176.317 407.359 176.283C407.339 176.249 407.313 176.218 407.282 176.194C407.251 176.17 407.215 176.152 407.177 176.142C407.1 176.125 407.02 176.138 406.952 176.176C406.884 176.215 406.832 176.277 406.807 176.352Z" class="outline"/>
<path id="Vector_32" d="M480.427 189.192C476.134 184.616 472.167 179.744 468.557 174.612C467.963 173.482 467.208 172.445 466.317 171.532C465.517 170.932 464.317 171.102 463.397 171.092C460.124 171.092 456.85 171.125 453.577 171.192C453.197 171.192 453.197 171.802 453.577 171.792C456.537 171.712 459.49 171.675 462.437 171.682C463.157 171.682 463.887 171.682 464.597 171.682C465.08 171.711 465.547 171.868 465.949 172.137C466.351 172.405 466.675 172.776 466.887 173.212C467.687 174.402 468.517 175.582 469.357 176.742C472.639 181.24 476.196 185.532 480.007 189.592C480.267 189.882 480.697 189.452 480.427 189.172V189.192Z" class="outline"/>
<path id="Vector_33" d="M451.797 168.521C451.687 167.461 451.627 166.391 451.617 165.331C451.618 165.292 451.612 165.252 451.597 165.215C451.582 165.178 451.56 165.144 451.532 165.116C451.504 165.088 451.47 165.066 451.433 165.051C451.396 165.037 451.357 165.03 451.317 165.031L431.827 165.651C431.447 165.651 431.447 166.261 431.827 166.251L451.317 165.631L451.017 165.331C451.017 166.391 451.087 167.461 451.197 168.521C451.197 168.901 451.837 168.901 451.797 168.521V168.521Z" class="outline"/>
<path id="Vector_34" d="M337.807 147.372C337.537 147.312 337.267 147.202 336.997 147.162C336.727 147.122 336.507 147.162 336.927 147.162C337.677 147.162 338.497 147.082 339.257 147.062C341.457 146.982 343.657 146.822 345.857 146.732C349.485 146.53 353.082 145.943 356.587 144.982C363.204 143.117 369.466 140.167 375.117 136.252C376.655 135.183 378.088 133.971 379.397 132.632C380.937 131.092 382.537 129.012 384.717 128.412C386.897 127.812 389.557 129.162 391.327 130.322C392.467 131.072 393.457 131.952 394.657 132.632C401.157 136.342 408.887 137.352 416.267 137.222C418.907 137.172 421.547 136.962 424.167 136.662C424.839 136.644 425.508 136.571 426.167 136.442C426.817 136.252 425.727 136.272 425.447 136.322C424.15 136.655 422.888 137.11 421.677 137.682C415.417 140.192 409.977 143.962 404.677 148.012C401.511 150.366 398.486 152.904 395.617 155.612C393.707 157.462 392.147 159.422 389.937 160.932C389.09 161.509 388.212 162.04 387.307 162.522C386.307 163.082 385.187 163.742 383.977 163.522C382.222 162.997 380.723 161.843 379.767 160.282C378.861 159.005 378.185 157.58 377.767 156.072C377.607 155.492 377.537 154.002 376.767 153.852C375.997 153.702 375.437 155.042 375.227 155.542C374.22 157.771 372.569 159.648 370.487 160.932C367.097 162.932 362.977 162.932 359.267 161.822C355.568 160.577 352.179 158.555 349.327 155.892C346.707 153.632 344.327 151.042 341.457 149.082C340.369 148.3 339.15 147.721 337.857 147.372C337.796 147.362 337.733 147.375 337.682 147.408C337.63 147.442 337.592 147.493 337.576 147.553C337.56 147.613 337.566 147.676 337.594 147.731C337.622 147.786 337.669 147.829 337.727 147.852C341.187 148.722 343.887 151.612 346.427 153.952C349.487 156.772 352.667 159.562 356.487 161.312C359.901 162.972 363.765 163.467 367.487 162.722C369.282 162.249 370.949 161.382 372.366 160.183C373.783 158.984 374.914 157.484 375.677 155.792C375.907 155.322 376.337 153.922 376.897 154.672C377.212 155.41 377.427 156.187 377.537 156.982C378.001 158.351 378.676 159.64 379.537 160.802C380.4 162.06 381.584 163.065 382.967 163.712C384.687 164.412 385.967 163.792 387.537 162.952C390.024 161.625 392.263 159.879 394.157 157.792C397.218 154.613 400.54 151.696 404.087 149.072C406.877 146.932 409.717 144.802 412.667 142.892C414.614 141.637 416.642 140.511 418.737 139.522C420.077 138.882 421.447 138.302 422.827 137.782C424.137 137.434 425.418 136.983 426.657 136.432C426.704 136.404 426.741 136.362 426.761 136.311C426.781 136.26 426.783 136.204 426.767 136.152C426.537 135.552 424.187 136.152 423.767 136.212C420.941 136.534 418.101 136.708 415.257 136.732C411.387 136.777 407.525 136.377 403.747 135.542C400.007 134.682 396.027 133.322 392.987 130.912C390.577 128.992 386.777 126.782 383.677 128.282C381.857 129.172 380.487 130.872 379.077 132.282C377.605 133.782 375.98 135.123 374.227 136.282C368.269 140.27 361.67 143.202 354.717 144.952C350.142 145.904 345.489 146.429 340.817 146.522C339.727 146.522 338.637 146.582 337.547 146.642C337.141 146.6 336.731 146.652 336.347 146.792C335.507 147.432 337.347 147.792 337.707 147.872C338.067 147.952 338.127 147.442 337.807 147.372Z" class="outline"/>
<path id="Vector_35" d="M357.387 161.702C363.028 163.762 368.949 164.952 374.947 165.232C378.777 165.457 382.613 164.909 386.227 163.622C386.527 163.512 386.397 163.022 386.097 163.132C382.537 164.401 378.76 164.945 374.987 164.732C369.032 164.458 363.154 163.274 357.557 161.222C357.257 161.112 357.127 161.602 357.427 161.702H357.387Z" class="outline"/>
<g id="Group_3">
<path id="Vector_36" d="M367.387 162.042C367.857 162.462 370.067 161.232 371.137 160.492C372.069 159.849 372.89 159.059 373.567 158.152C374.244 157.306 374.84 156.399 375.347 155.442C375.515 155.119 375.719 154.817 375.957 154.542C376.257 154.202 376.417 154.012 376.597 154.022C376.777 154.032 377.067 154.702 377.507 156.022C377.797 156.892 378.137 157.742 378.447 158.602C378.47 158.683 378.503 158.76 378.547 158.832C378.757 159.154 379.061 159.405 379.417 159.552C380.417 159.972 392.917 151.642 391.137 147.922C390.137 145.782 384.437 145.212 380.217 147.042C372.627 150.322 369.267 158.722 364.137 159.622C361.667 160.052 359.887 158.622 360.407 157.552C361.117 156.152 365.857 155.782 367.217 153.802C368.837 151.452 364.117 149.152 365.047 148.172C365.977 147.192 370.537 150.222 375.487 147.792C380.157 145.502 384.047 138.902 382.747 137.992C381.447 137.082 374.507 141.142 374.367 142.472C374.187 144.102 383.767 143.762 388.087 139.472C390.467 137.112 390.797 132.812 389.737 132.222C386.457 130.422 365.497 160.412 367.387 162.042Z" fill="#FED0E5"/>
<path id="Vector_37" d="M367.297 162.232C368.387 162.832 370.537 161.172 371.347 160.592C373.075 159.244 374.491 157.539 375.497 155.592C375.687 155.262 376.227 154.142 376.737 154.402C376.987 154.532 377.257 155.872 377.337 156.102C377.577 157.158 377.982 158.171 378.537 159.102C379.137 159.872 379.667 159.782 380.427 159.432C383.097 158.105 385.548 156.378 387.697 154.312C389.147 152.992 392.027 150.472 391.427 148.182C391.077 146.872 389.537 146.302 388.357 146.032C386.234 145.589 384.035 145.664 381.947 146.252C377.497 147.422 374.157 150.832 371.127 154.092C369.843 155.609 368.405 156.99 366.837 158.212C366.142 158.72 365.364 159.102 364.537 159.342C363.607 159.582 360.107 159.592 360.537 157.762C360.717 156.962 362.177 156.582 362.807 156.352C363.697 156.022 364.607 155.732 365.467 155.352C366.637 154.792 367.997 153.842 367.707 152.352C367.551 151.757 367.26 151.206 366.857 150.742C366.417 150.192 365.407 149.472 365.217 148.742C364.927 147.672 366.867 148.262 367.407 148.382C368.37 148.601 369.345 148.761 370.327 148.862C375.057 149.222 378.867 146.272 381.447 142.552C382.047 141.682 384.757 137.352 381.867 137.702C380.386 138.004 378.977 138.588 377.717 139.422C376.647 140.042 375.057 140.862 374.397 141.982C373.287 143.882 378.027 143.512 378.747 143.432C382.237 143.092 386.407 141.872 388.747 139.042C389.991 137.498 390.625 135.552 390.527 133.572C390.477 132.922 390.307 132.042 389.527 131.942C388.277 131.782 386.777 133.462 386.007 134.202C381.657 138.382 378.007 143.452 374.627 148.382C372.867 150.912 371.157 153.502 369.627 156.162C368.559 157.689 367.742 159.377 367.207 161.162C367.147 161.472 367.067 161.872 367.317 162.162C367.352 162.185 367.393 162.196 367.435 162.192C367.477 162.188 367.516 162.169 367.545 162.14C367.575 162.11 367.593 162.071 367.597 162.03C367.601 161.988 367.59 161.946 367.567 161.912C367.027 161.372 368.417 159.102 368.657 158.632C369.737 156.532 370.987 154.522 372.267 152.542C375.47 147.55 378.988 142.767 382.797 138.222C384.17 136.516 385.689 134.933 387.337 133.492C387.83 133.013 388.411 132.632 389.047 132.372C390.137 132.042 390.217 133.372 390.187 134.192C390.027 138.762 386.187 141.332 382.187 142.452C380.533 142.93 378.819 143.172 377.097 143.172C376.457 143.172 374.097 143.172 374.857 142.062C375.617 140.952 377.197 140.152 378.327 139.522C379.457 138.892 381.217 137.752 382.437 138.022C383.657 138.292 382.077 141.022 381.707 141.632C380.646 143.376 379.293 144.926 377.707 146.212C375.67 147.885 373.066 148.708 370.437 148.512C369.427 148.412 368.425 148.245 367.437 148.012C366.846 147.822 366.226 147.741 365.607 147.772C365.473 147.769 365.341 147.803 365.225 147.87C365.109 147.937 365.014 148.035 364.95 148.153C364.885 148.27 364.855 148.403 364.862 148.537C364.868 148.671 364.912 148.801 364.987 148.912C365.567 150.182 367.097 150.852 367.417 152.302C367.907 154.462 364.667 155.302 363.197 155.842C362.327 156.162 360.747 156.522 360.337 157.482C359.927 158.442 361.147 159.372 361.997 159.642C362.707 159.828 363.446 159.87 364.172 159.767C364.899 159.664 365.597 159.418 366.227 159.042C369.227 157.392 371.297 154.342 373.667 151.992C376.977 148.712 380.907 146.132 385.717 146.112C387.297 146.112 390.247 146.272 391.037 148.002C391.527 149.052 390.777 150.292 390.187 151.142C388.295 153.578 385.99 155.663 383.377 157.302C382.425 157.969 381.422 158.561 380.377 159.072C380.114 159.246 379.811 159.353 379.497 159.382C378.397 159.222 377.957 156.792 377.677 155.972C377.477 155.392 377.257 153.552 376.297 153.972C375.617 154.272 375.217 155.402 374.867 155.972C374.189 157.161 373.359 158.257 372.397 159.232C371.772 159.824 371.085 160.347 370.347 160.792C369.767 161.152 368.167 162.272 367.467 161.892C367.445 161.88 367.42 161.874 367.395 161.872C367.371 161.87 367.346 161.873 367.322 161.881C367.298 161.889 367.276 161.902 367.257 161.918C367.239 161.934 367.223 161.954 367.212 161.977C367.201 161.999 367.194 162.023 367.192 162.048C367.191 162.073 367.194 162.098 367.202 162.122C367.21 162.145 367.222 162.167 367.238 162.186C367.255 162.205 367.275 162.22 367.297 162.232V162.232Z" class="outline"/>
</g>
</g>
<g id="Group 33">
<path id="Vector_38" d="M224.925 30.7291C214.86 42.1725 203.244 52.1525 190.415 60.3791C187.288 62.3791 184.095 64.2725 180.835 66.0591C180.766 66.0989 180.716 66.1645 180.695 66.2414C180.674 66.3182 180.685 66.4002 180.725 66.4691C180.765 66.5381 180.83 66.5884 180.907 66.609C180.984 66.6297 181.066 66.6189 181.135 66.5791C194.263 59.3766 206.345 50.4136 217.045 39.9391C219.892 37.0925 222.648 34.1658 225.315 31.1591C225.575 30.8691 225.155 30.4391 224.895 30.7291H224.925Z" class="outline"/>
<path id="Vector_39" d="M254.685 59.0692C240.792 65.5952 228.646 75.3251 219.245 87.4592C217.292 89.9659 215.465 92.5625 213.765 95.2492C213.555 95.5792 214.075 95.8792 214.285 95.5592C224.088 79.8744 238.229 67.3693 254.995 59.5592C255.345 59.3892 254.995 58.8792 254.685 59.0392V59.0692Z" class="outline"/>
<path id="Vector_40" d="M180.775 66.5292C186.002 70.6441 191.678 74.1532 197.695 76.9892C199.958 77.936 202.124 79.098 204.165 80.4592C206.05 81.8455 207.693 83.5351 209.025 85.4592C211.095 88.5815 212.598 92.0446 213.465 95.6892C213.555 96.0692 214.135 95.9092 214.045 95.5292C212.645 90.1192 210.205 84.8292 205.935 81.0792C204.153 79.5755 202.167 78.333 200.035 77.3892C196.835 75.8792 193.665 74.3392 190.615 72.5292C187.336 70.5863 184.189 68.4283 181.195 66.0692C180.895 65.8292 180.465 66.2592 180.775 66.4892V66.5292Z" class="outline"/>
<g id="Group_4">
<path id="Vector_41" d="M228.855 43.9693C224.005 40.3493 203.995 54.1493 205.315 59.6693C206.055 62.7393 213.785 64.6093 219.415 62.0193C227.415 58.3493 227.655 47.2993 233.675 46.6193C236.565 46.2993 239.475 48.4693 239.305 49.8193C239.075 51.6393 233.305 51.6493 232.535 54.1893C231.605 57.1893 238.595 60.8393 237.895 62.0793C237.195 63.3193 230.055 58.7193 224.985 61.4993C220.215 64.1193 218.435 72.6793 220.485 74.0393C222.535 75.3993 229.335 70.6393 228.885 68.8393C228.345 66.6493 216.505 66.0993 213.105 71.4693C210.885 74.9593 212.325 80.8593 214.445 81.1493C219.725 81.8493 234.915 48.4793 228.855 43.9693Z" fill="#FFE271"/>
<path id="Vector_42" d="M228.925 43.8592C226.845 42.3992 223.575 43.6792 221.525 44.5292C218.055 46.0178 214.807 47.9797 211.875 50.3592C209.475 52.2692 206.685 54.6192 205.485 57.5292C204.225 60.6192 207.205 62.2892 209.855 62.9392C212.142 63.5482 214.545 63.5677 216.841 62.9958C219.137 62.424 221.251 61.2795 222.985 59.6692C225.985 56.6692 227.265 52.6192 229.775 49.3092C231.115 47.5492 232.905 46.4092 235.195 46.7892C236.495 46.9992 238.405 47.7892 239.005 49.0792C239.605 50.3692 238.005 50.9192 237.065 51.2792C235.625 51.7992 233.615 52.2092 232.695 53.5692C231.925 54.7292 232.515 56.0192 233.265 57.0092C234.405 58.5192 236.005 59.5692 237.265 61.0092C237.905 61.7292 237.945 62.3292 236.825 62.1592C235.901 61.9644 234.989 61.714 234.095 61.4092C229.855 60.1892 225.365 59.8592 222.365 63.6592C221.119 65.2856 220.249 67.1671 219.815 69.1692C219.395 70.5378 219.395 72.0007 219.815 73.3692C221.055 76.2492 225.875 72.7492 227.195 71.6192C227.875 71.0492 229.325 69.8592 229.005 68.7892C228.765 67.9792 227.555 67.6792 226.855 67.5092C223.317 66.7061 219.614 67.0892 216.315 68.5992C214.519 69.484 213.116 71.0039 212.377 72.8644C211.638 74.7249 211.616 76.7934 212.315 78.6692C212.655 79.6692 213.315 81.2592 214.665 81.2392C215.309 81.1684 215.912 80.8913 216.385 80.4492C218.455 78.8292 219.935 76.3392 221.255 74.1192C223.105 70.9563 224.732 67.6683 226.125 64.2792C227.592 60.8546 228.766 57.312 229.635 53.6892C230.205 51.2092 230.805 48.3192 230.125 45.7992C229.957 45.0369 229.543 44.3514 228.945 43.8492C228.825 43.7492 228.645 43.9292 228.765 44.0292C230.345 45.2592 230.225 47.8292 230.065 49.6092C229.716 52.7 229.011 55.7401 227.965 58.6692C225.957 65.0862 223.044 71.1842 219.315 76.7792C218.315 78.1892 216.865 80.4992 215.065 80.9592C213.265 81.4192 212.535 78.7292 212.305 77.4692C212.037 76.2712 212.048 75.0275 212.337 73.8344C212.627 72.6414 213.187 71.531 213.975 70.5892C216.525 67.8892 220.975 67.2092 224.505 67.3992C225.856 67.351 227.194 67.6726 228.375 68.3292C229.715 69.3292 227.445 71.0992 226.665 71.7192C225.285 72.7992 223.415 74.0492 221.615 74.1292C219.815 74.2092 219.735 72.2592 219.835 70.9092C220.115 66.8192 222.635 61.9092 226.925 60.9092C229.277 60.5487 231.682 60.7754 233.925 61.5692C234.855 61.8292 236.675 62.7692 237.665 62.3892C239.325 61.7492 234.735 58.2392 234.305 57.7792C233.005 56.4192 231.685 54.3992 233.685 52.9792C235.085 51.9792 236.855 51.7992 238.355 50.9792C239.355 50.4692 239.785 49.7092 239.115 48.7092C238.523 47.9584 237.761 47.3598 236.891 46.9632C236.022 46.5666 235.07 46.3835 234.115 46.4292C230.985 46.5392 229.245 49.4292 227.875 51.9092C225.875 55.4792 223.965 59.3492 220.245 61.4392C217.911 62.684 215.273 63.2422 212.635 63.0492C210.495 62.9392 207.795 62.4392 206.225 60.8292C204.145 58.6792 206.755 55.6492 208.225 54.0192C210.709 51.4012 213.546 49.1427 216.655 47.3092C219.395 45.6292 222.525 43.9192 225.765 43.5292C226.795 43.3299 227.862 43.5149 228.765 44.0492C228.925 44.1692 229.055 43.9492 228.925 43.8592Z" class="outline"/>
</g>
<path id="Vector_43" d="M224.925 31.1593C231.378 36.4309 238.402 40.9625 245.865 44.6693C248.515 46.0493 251.455 47.4293 253.505 49.6693C256.005 52.3893 255.895 55.9693 254.555 59.2393C254.405 59.5993 254.985 59.7493 255.135 59.3993C255.71 58.1973 256.039 56.8925 256.102 55.5616C256.166 54.2307 255.963 52.9006 255.505 51.6493C254.677 49.9104 253.382 48.4356 251.765 47.3893C249.446 45.8601 247.023 44.4935 244.515 43.2993C241.335 41.6393 238.185 39.9293 235.165 37.9993C231.722 35.8006 228.431 33.3718 225.315 30.7293C225.025 30.4893 224.595 30.9093 224.895 31.1593H224.925Z" class="outline"/>
</g>
<g id="Group 34">
<g id="Group_5">
<path id="Vector_44" d="M125.437 13.634C120.017 16.824 117.817 25.834 120.437 28.224C123.497 31.034 134.097 25.684 136.437 20.824C136.718 20.3118 136.888 19.7463 136.937 19.164C137.157 15.464 131.537 12.834 132.177 11.644C132.257 11.514 132.317 11.564 134.177 11.104C135.327 10.814 135.177 10.824 137.177 10.304L138.957 9.84404C140.327 9.47404 141.017 9.21404 141.077 9.32404C141.137 9.43404 138.727 10.674 138.917 11.474C138.987 11.734 139.317 11.864 139.447 11.914C142.157 13.044 152.997 9.91404 153.807 10.504C154.617 11.094 142.487 14.214 141.037 17.604C139.677 20.794 148.157 23.514 151.687 22.604C155.217 21.694 155.947 16.974 153.387 16.854C150.287 16.724 138.547 23.224 141.727 26.204C143.797 28.204 152.137 28.534 154.457 27.404C155.037 27.124 155.137 26.894 155.197 26.724C156.487 23.184 135.727 7.57404 125.437 13.634Z" fill="#CEC9EF"/>
<path id="Vector_45" d="M125.377 13.5241C123.791 14.5801 122.439 15.9518 121.407 17.5537C120.374 19.1556 119.683 20.9532 119.377 22.8341C118.987 25.0341 118.967 28.3241 121.657 28.9941C124.907 29.7941 128.847 27.6841 131.457 25.9941C133.867 24.4141 137.687 21.4541 136.927 18.1041C136.412 16.5324 135.454 15.1432 134.167 14.1041C133.604 13.6225 133.076 13.1012 132.587 12.5441C131.937 11.7141 132.417 11.6441 133.217 11.4441C134.967 11.0341 136.697 10.5441 138.437 10.1041C139.127 9.92411 139.797 9.68411 140.497 9.52411C140.957 9.41411 140.927 9.35411 140.497 9.61411C140.067 9.87411 139.817 10.0641 139.497 10.3141C138.677 10.9741 138.357 11.7641 139.587 12.1241C140.934 12.3891 142.32 12.3891 143.667 12.1241C145.517 11.8941 147.357 11.5341 149.187 11.1941C149.907 11.0541 150.627 10.9241 151.347 10.8041C151.976 10.6194 152.632 10.5417 153.287 10.5741C153.767 10.6841 153.467 10.7541 153.117 10.9441C152.538 11.2266 151.944 11.4769 151.337 11.6941C149.857 12.2741 148.337 12.8441 146.897 13.4741C145.302 14.0987 143.785 14.9075 142.377 15.8841C141.931 16.1389 141.548 16.4902 141.255 16.9125C140.963 17.3347 140.769 17.817 140.687 18.3241C140.687 21.1241 145.567 22.3241 147.597 22.7141C150.477 23.2441 154.137 22.9241 154.857 19.4441C155.014 18.98 155.006 18.476 154.835 18.017C154.664 17.5579 154.34 17.172 153.917 16.9241C152.967 16.5341 151.707 17.0341 150.817 17.3541C147.74 18.4151 144.924 20.1196 142.557 22.3541C141.047 23.8641 140.177 25.8741 142.557 27.0141C145.477 28.4241 149.557 28.5441 152.747 28.0641C153.637 27.9341 155.147 27.7041 155.317 26.6041C155.315 25.924 155.083 25.2646 154.657 24.7341C153.104 22.5988 151.18 20.7596 148.977 19.3041C143.587 15.3541 136.237 11.4341 129.327 12.3041C127.92 12.4656 126.56 12.9077 125.327 13.6041C125.187 13.6841 125.327 13.9041 125.447 13.8241C129.347 11.5941 134.167 12.4341 138.187 13.8241C142.54 15.3798 146.597 17.6622 150.187 20.5741C151.247 21.4141 157.007 25.9541 154.317 27.3941C152.477 28.3941 149.597 28.0841 147.617 27.9041C145.947 27.7641 142.297 27.5541 141.397 25.7741C140.607 24.2541 142.667 22.5241 143.687 21.6841C145.432 20.2827 147.356 19.1192 149.407 18.2241C150.617 17.6841 153.807 16.0741 154.557 17.9841C155.557 20.4541 152.667 22.5941 150.557 22.7241C148.077 22.8841 137.697 20.4741 141.997 16.5641C144.927 13.8741 149.227 12.9241 152.717 11.4241C153.077 11.2741 154.397 10.8341 153.717 10.4241C153.417 10.2141 152.647 10.4241 152.317 10.4241C151.267 10.5541 150.227 10.7641 149.177 10.9641C146.657 11.5337 144.095 11.9048 141.517 12.0741C140.747 12.0741 138.107 11.9841 139.517 10.6841C139.857 10.3741 141.097 9.89411 141.147 9.36411C141.149 9.34185 141.145 9.31939 141.134 9.29973C141.123 9.28007 141.107 9.26416 141.087 9.25411C140.707 9.03411 139.847 9.48411 139.497 9.59411C138.767 9.80411 138.037 9.97411 137.297 10.1641L134.697 10.8641C133.851 10.9334 133.02 11.1219 132.227 11.4241C131.707 11.7841 132.067 12.3241 132.387 12.7241C133.527 14.1441 135.097 15.1241 136.057 16.7241C138.727 21.1641 132.477 25.3141 129.157 27.0141C126.607 28.3241 120.617 30.7841 119.587 26.4341C118.497 21.8641 121.587 16.0841 125.457 13.7441C125.637 13.6541 125.507 13.4241 125.377 13.5241Z" class="outline"/>
</g>
<path id="Vector_46" d="M92.607 35.7142C95.4946 31.1067 99.993 27.7382 105.227 26.2642C105.304 26.243 105.369 26.1921 105.409 26.1227C105.448 26.0533 105.458 25.9711 105.437 25.8942C105.416 25.8173 105.365 25.7519 105.295 25.7125C105.226 25.6732 105.144 25.663 105.067 25.6842C99.6748 27.1989 95.0402 30.6677 92.067 35.4142C91.867 35.7342 92.387 36.0442 92.587 35.7142H92.607Z" class="outline"/>
<path id="Vector_47" d="M92.977 26.6242C101.977 19.5442 111.977 13.7042 122.977 10.3942C129.776 8.30903 136.868 7.33649 143.977 7.51416C147.497 7.61416 151.247 7.75416 154.537 9.08416C157.789 10.3976 160.918 11.9972 163.887 13.8642C165.883 15.2551 168.078 16.3372 170.397 17.0742C173.668 17.8955 177.074 18.0215 180.397 17.4442L180.227 17.0242C174.364 21.4342 168.161 25.3732 161.677 28.8042C158.807 30.3942 155.897 31.9042 152.917 33.2642C149.985 34.7161 146.875 35.7785 143.667 36.4242C142.576 36.6797 141.438 36.659 140.357 36.3642C139.701 36.054 139.083 35.6681 138.517 35.2142C137.237 34.5066 136.073 33.6061 135.067 32.5442C134.716 31.9769 134.178 31.5493 133.547 31.3342C132.647 31.1742 132.237 31.8342 131.667 32.3842C129.907 33.9188 127.652 34.7643 125.317 34.7642C121.797 34.7642 118.647 32.7642 115.777 30.9342C112.557 28.9342 109.337 26.7642 105.657 25.6142C101.977 24.4642 97.037 23.9842 93.467 25.7442C89.467 27.7442 90.227 32.4042 92.087 35.6642C92.1234 35.7142 92.177 35.749 92.2376 35.7617C92.2982 35.7745 92.3613 35.7644 92.4148 35.7332C92.4683 35.7021 92.5084 35.6523 92.5272 35.5933C92.5461 35.5344 92.5425 35.4706 92.517 35.4142C91.5538 33.8672 91.0316 32.0863 91.007 30.2642C91.097 27.5442 93.197 26.0642 95.647 25.5242C99.6556 24.7445 103.807 25.2049 107.547 26.8442C111.037 28.3042 114.077 30.5342 117.297 32.4742C119.937 34.0642 122.887 35.4742 126.057 35.2342C127.974 35.0532 129.807 34.3626 131.367 33.2342C132.367 32.5242 133.017 31.1142 134.367 32.5042C135.086 33.3136 135.884 34.0504 136.747 34.7042C137.907 35.4842 139.187 36.6342 140.597 36.9542C141.588 37.1417 142.606 37.1417 143.597 36.9542C146.525 36.3914 149.369 35.4537 152.057 34.1642C155.057 32.8542 157.977 31.3642 160.847 29.8042C167.754 26.2285 174.353 22.0877 180.577 17.4242C180.797 17.2442 180.577 16.9742 180.337 17.0042C177.011 17.5786 173.6 17.4285 170.337 16.5642C168.112 15.8025 166.004 14.732 164.077 13.3842C161.211 11.5984 158.201 10.0563 155.077 8.77416C153.685 8.19292 152.222 7.79623 150.727 7.59416C148.88 7.34749 147.027 7.18083 145.167 7.09416C131.897 6.47416 118.847 10.2442 107.267 16.5842C102.143 19.4134 97.2659 22.6682 92.687 26.3142C92.437 26.5142 92.787 26.8642 93.037 26.6642L92.977 26.6242Z" class="outline"/>
<path id="Vector_48" d="M122.147 34.804C129.547 37.6827 137.633 38.3056 145.387 36.594C145.697 36.524 145.567 36.044 145.247 36.114C137.572 37.8011 129.569 37.1783 122.247 34.324C121.947 34.204 121.817 34.684 122.117 34.804H122.147Z" class="outline"/>
</g>
</g>
</svg>
