<svg viewBox="0 0 481 211" fill="none" xmlns="http://www.w3.org/2000/svg"><title>Cover illustration of drawings floating away from an easel</title><path d="M261.148 100.176a161.38 161.38 0 0 0 42.3-3 145.47 145.47 0 0 0 10.76-2.65c.4-.183.824-.307 1.26-.37.38.12.36.29.52.66.26.56.53 1.11.81 1.66a18.98 18.98 0 0 0 2.42 3.88 31.858 31.858 0 0 0 14.22 9.28 69.536 69.536 0 0 1 9.67 3.53 43.624 43.624 0 0 1 8.32 5.37l.17-.42a37.939 37.939 0 0 0-10.93.93c-2.86.68-5.6 1.68-8.53 2.1-3.63.423-7.29.537-10.94.34a105.878 105.878 0 0 1-10.84-.74c-1.18-.15-2.36-.33-3.54-.53-.63-.11-1.93-.63-2.51-.44-.37.13-.79.77-1.08 1a15.306 15.306 0 0 1-2 1.57 14.13 14.13 0 0 1-5.49 2.128 14.125 14.125 0 0 1-5.88-.298 25.707 25.707 0 0 1-8.64-4.36 30.925 30.925 0 0 1-5.54-4.93c-1.79-2.11-3.3-4.43-5.13-6.52a71.908 71.908 0 0 0-9.18-8.61c-.25-.2-.61.15-.35.35a74.015 74.015 0 0 1 8.57 7.94c1.81 2 3.34 4.17 5 6.28a31.925 31.925 0 0 0 12.53 9.46 16.236 16.236 0 0 0 10.26 1 14.114 14.114 0 0 0 4.57-2.16 17.28 17.28 0 0 0 1.57-1.26c.22-.25.461-.481.72-.69.49-.34 1-.15 1.55 0a100.544 100.544 0 0 0 23 1.44c3.395-.25 6.75-.887 10-1.9a37.843 37.843 0 0 1 12.83-1.46c.05.001.1-.013.142-.04a.24.24 0 0 0 .095-.114.25.25 0 0 0-.057-.276 44.248 44.248 0 0 0-8.83-5.66 89.495 89.495 0 0 0-10.19-3.64 30.006 30.006 0 0 1-10.46-6.14 20.312 20.312 0 0 1-3.56-3.9 34.468 34.468 0 0 1-2.7-5.18.269.269 0 0 0-.29-.11 159.622 159.622 0 0 1-54.6 6.08c-.31-.15-.31.4-.02.4z" class="outline"/><path d="M319.428 109.176c-.45-3.91-23.89-9.8-27.16-7.12-1.83 1.5 1.82 6.34 7.44 8.46 5.24 2 8.19.92 20.88 2.21 5.22.52 8.75.9 8.86 1.92.11 1.02-3.84 3.07-7.77 2.83-4.2-.26-7.34-2.95-7.52-2.66-.18.29 4.41 2.87 4 4.07-.41 1.2-5.53 1.38-9.53-1.06-2.8-1.71-2.55-3.22-4.88-4.48-4.82-2.63-12.7.35-12.37 2 .33 1.65 8.34 3.57 9.4 2.69 1.3-1.08-6-7.67-12.28-7.6-4.08.06-7.57 2.94-6.4 4.19 2.9 3.13 37.9-.58 37.33-5.45z" fill="#B8E6CA"/><path d="M319.578 109.116c-.3-1.9-3.53-3-5-3.64a58.016 58.016 0 0 0-10.65-3.2 33.327 33.327 0 0 0-9.43-1 4.232 4.232 0 0 0-2.34.68c-.9.79-.44 2.11.06 3 2 3.47 6.17 5.61 9.94 6.49 3.07.71 6.3.63 9.44.78 2.84.126 5.677.333 8.51.62 2.68.26 5.69.27 8.25 1.18.24.08.78.24.9.54.22.57-.74 1.11-1.1 1.33a11.257 11.257 0 0 1-4.74 1.42 14 14 0 0 1-8.09-2.11c-.17-.09-1.43-1-1.3-.24.05.3.74.67 1 .84a20.605 20.605 0 0 1 2.26 1.79c.84.83 1 1.52-.29 1.84a9.355 9.355 0 0 1-3.69 0 11.589 11.589 0 0 1-7.34-4.3c-2.8-3.52-8-3.48-11.89-2-.85.32-2.6 1-2.81 2-.18.92 1.16 1.47 1.81 1.76a19.856 19.856 0 0 0 5.24 1.47c.64.09 2.3.45 2.71-.3.41-.75-.74-1.89-1.18-2.35a18.433 18.433 0 0 0-5-3.63c-3.75-1.92-8.93-2.74-12.26.51-1.82 1.78-.16 2.74 1.6 3 2.682.386 5.397.483 8.1.29 3.57-.13 7.15-.47 10.69-.95a79.597 79.597 0 0 0 10.05-1.9c1.94-.52 4.41-1.1 5.92-2.52a1.667 1.667 0 0 0 .66-1.35c0-.19-.31-.19-.3 0 .12 1.49-2.55 2.34-3.57 2.71-2.634.9-5.34 1.569-8.09 2a98.51 98.51 0 0 1-19.15 1.73c-1.8 0-4.2.09-5.85-.79-1.87-1 1.14-2.92 2.06-3.34a9.995 9.995 0 0 1 7.57-.23 18.878 18.878 0 0 1 6 3.38c.56.46 3 2.35 2.41 3.25-.59.9-3.62-.1-4.34-.28-1.38-.34-3.56-.76-4.56-1.88-1-1.12 2.26-2.38 3-2.62a13.195 13.195 0 0 1 6.77-.43 7.119 7.119 0 0 1 3.31 1.63c.75.71 1.28 1.62 2 2.35a11.858 11.858 0 0 0 6.13 2.95c1 .19 6.82.68 4.88-1.8a15.005 15.005 0 0 0-3.37-2.78c-.2-.14-.44-.25-.13 0s.52.28.77.42c.764.437 1.552.831 2.36 1.18a12.587 12.587 0 0 0 7.17.79c1.4-.26 3.9-.85 4.71-2.22 1.22-2.08-6.1-2.34-6.95-2.43-4.72-.5-9.43-.8-14.16-1a27.415 27.415 0 0 1-8-1.18 16.393 16.393 0 0 1-6.34-3.86c-.87-.87-3.09-3.37-1.59-4.59a4.518 4.518 0 0 1 2.58-.59 24.813 24.813 0 0 1 4.14.23 64.246 64.246 0 0 1 10.18 2.19 30.508 30.508 0 0 1 8.39 3.46c.63.42 1.45 1 1.58 1.79.1.18.39.1.36-.09zM292.668 125.066a123.237 123.237 0 0 0 44.34-4.46.255.255 0 0 0 .071-.123.249.249 0 0 0-.09-.255.243.243 0 0 0-.131-.052 122.947 122.947 0 0 1-44.21 4.44c-.32 0-.32.47 0 .5l.02-.05zM8.842 25.946a191.405 191.405 0 0 1 4.93 41.16.3.3 0 0 0 .6 0 192.257 192.257 0 0 0-4.95-41.32c-.09-.38-.67-.22-.58.16z" class="outline"/><path d="M9.242 26.286a461.39 461.39 0 0 0 52.58 1.92.3.3 0 0 0 0-.6 461.39 461.39 0 0 1-52.58-1.92c-.39 0-.39.56 0 .6z" class="outline"/><path d="M61.702 28.006c.18 3 .37 5.95.55 8.92 0 .38.62.39.6 0-.18-3-.37-5.94-.55-8.92 0-.38-.62-.38-.6 0zM35.642 25.586l-.7-9-.17-2.22a5.316 5.316 0 0 1-.07-1 .999.999 0 0 1 .38-.72c.182-.035.368-.035.55 0 1.48 0 3 .14 4.45.21l-.3-.3.59 11.61c0 .39.62.39.6 0l-.59-11.61a.31.31 0 0 0-.3-.3l-2.52-.13a14.123 14.123 0 0 0-2.38-.12c-1.5.2-1 1.93-1 3l.82 10.55c0 .38.63.38.6 0l.04.03zM39.732 103.246a3113.61 3113.61 0 0 0-18 50.52c-1.673 4.853-3.34 9.703-5 14.55-.12.37.46.53.58.16 5.76-16.92 11.67-33.787 17.73-50.6 1.74-4.833 3.493-9.657 5.26-14.47.13-.37-.45-.52-.58-.16h.01zM43.882 102.546a389.875 389.875 0 0 0 26.94 59c3.087 5.52 6.3 10.967 9.64 16.34.21.33.73 0 .52-.3a401.646 401.646 0 0 1-30-58.33 368.417 368.417 0 0 1-6.49-16.87c-.13-.36-.71-.2-.58.16h-.03zM41.712 102.166a8052.273 8052.273 0 0 0-7.73 65.8c-.707 6.28-1.407 12.554-2.1 18.82 0 .38.56.38.6 0 2.42-21.96 4.94-43.903 7.56-65.83.753-6.26 1.51-12.523 2.27-18.79 0-.39-.56-.38-.6 0z" class="outline"/><path d="M15.652 101.666a112.087 112.087 0 0 1-1.52-17.15c-.152-3.998.2-8 1.05-11.91a14.62 14.62 0 0 1 7.18-9.7 13.82 13.82 0 0 1 10.81-.9c3.39 1 6.39 3 9.39 4.72a.31.31 0 0 0 .46-.26c.22-8.36 3.4-16.47 10.24-21.6a28.11 28.11 0 0 1 18.1-5.42c1.934.207 3.841.616 5.69 1.22l-.18-.44a66.339 66.339 0 0 0-9.64 61.59c.12.37.7.21.57-.16a66.26 66.26 0 0 1 4-52.44 63.783 63.783 0 0 1 5.57-8.69.301.301 0 0 0-.18-.44 32.387 32.387 0 0 0-5.29-1.21 27.92 27.92 0 0 0-8 .58 26.44 26.44 0 0 0-19 14.93 32.109 32.109 0 0 0-2.54 12.08l.45-.25a54.148 54.148 0 0 0-8.42-4.44 14.66 14.66 0 0 0-10.83-.08c-8.69 3.36-9.92 12.78-10 20.9a107.837 107.837 0 0 0 1.54 19.23c.06.38.64.21.57-.16h-.02z" class="outline"/><path d="M67.772 101.656a108 108 0 0 0-40.36-2.5 112.243 112.243 0 0 0-12.08 2.23.3.3 0 0 0 .15.58 107.872 107.872 0 0 1 39.13-2.24c4.38.576 8.72 1.414 13 2.51.38.09.54-.49.16-.58zM59.282 40.846a274.787 274.787 0 0 0-14.3 5.68c-3.17 1.36-6.42 2.7-9.42 4.31-5.69 3-11.38 6.75-15.68 11.59a24.55 24.55 0 0 0-5.63 11.74c-.07.38.51.54.58.16a23.83 23.83 0 0 1 5-10.94 43.733 43.733 0 0 1 8.73-7.58 87.232 87.232 0 0 1 14.73-7.89 278.216 278.216 0 0 1 16.17-6.5c.36-.13.21-.71-.16-.57h-.02z" class="outline"/><path d="M51.722 53.716c0-.35.43-4.93-1-5.72a.93.93 0 0 0-.44-.14c-.51 0-1 .39-2.47 2.69-.36.57-.74 1.18-1.27 2.14a24.482 24.482 0 0 0-1.23 2.37 32.124 32.124 0 0 0-1.32 4.41c-.23.92-.35 1.38-.45 1.86a21.925 21.925 0 0 0-.55 3.4c-.07 1.11 0 1.59-.27 1.74-.27.15-.83-.25-1.53-.76-.9-.64-1.93-1.07-2.86-1.66-2.13-1.34-9.93-4.36-11.66-2.04-.92 1.21.06 3.72 1 5.16 2.6 4 8.92 5.93 13.84 4.2 8.05-2.88 8.87-14.36 14.85-14.31 2.88 0 5.65 2.64 5.42 4-.3 1.87-6 1.16-6.9 3.72-1.07 3 5.69 7.67 4.93 8.86-.76 1.19-7.59-4.46-12.74-2.2-4.85 2.13-7 10.82-5 12.49s8.92-2.44 8.56-4.37c-.43-2.34-12.13-4.39-15.75.78-2.35 3.36-1.21 9.68.88 10.24 5.39 1.49 15.34-30.34 15.96-36.86z" fill="#FFF9B9"/><path d="M51.842 53.716c.1-1.05.16-7.69-2.36-5.65a9.54 9.54 0 0 0-1.8 2.42c-.76 1.21-1.49 2.45-2.14 3.73a30.068 30.068 0 0 0-2.09 6.84 23.701 23.701 0 0 0-.58 3.35c-.06.7.15 2.15-1 1.65-.7-.3-1.36-.94-2-1.31a36.01 36.01 0 0 0-5.46-2.61c-2.1-.73-8.57-2.79-8.16 1.51.48 5 6 8 10.49 8.38 4.49.38 8.4-2 11.07-5.65 1.23-1.69 2.22-3.53 3.36-5.28 1-1.47 2.14-3.12 3.89-3.7a5 5 0 0 1 3.71.36c1 .46 3.56 2.13 2.86 3.55-.36.74-1.61.91-2.33 1.09-.918.184-1.82.438-2.7.76-4 1.68-.49 5.65 1.29 7.65a13.418 13.418 0 0 1 1.63 2c.12.19.43.62.2.86-.23.24-.9 0-1.16-.14-1.93-.66-3.71-1.69-5.69-2.24a8.31 8.31 0 0 0-6.29.33 9.9 9.9 0 0 0-3.93 4.39 13.079 13.079 0 0 0-1.47 5.4c0 1 .09 2.48 1.22 2.93 1.39.55 3.24-.29 4.46-.91 1.22-.62 3.14-1.68 3.73-3.1 1-2.35-4.2-3-5.5-3.18-3.49-.39-8.15 0-10.35 3.17a9.15 9.15 0 0 0-1.18 6.37c.17 1.28.62 3.41 2 4 1.65.68 3.21-1.51 4-2.62a46.865 46.865 0 0 0 4.71-9.22 131.786 131.786 0 0 0 7.12-22.1c.227-.99.4-1.991.52-3 0-.16-.23-.16-.25 0a43.682 43.682 0 0 1-1.54 7c-.94 3.48-2 6.93-3.2 10.34-1.25 3.61-2.6 7.19-4.2 10.66a28.91 28.91 0 0 1-4.33 7.38 3.62 3.62 0 0 1-2.11 1.38c-1.81.13-2.35-2.85-2.49-4.14-.25-2.31.14-5 1.84-6.68a9.21 9.21 0 0 1 5.5-2.32c1.908-.23 3.84-.141 5.72.26 1 .23 3.09.63 3.6 1.73.65 1.42-2.24 3-3.16 3.56-1.19.66-3.81 2-5.1.93-1.29-1.07-.66-3.5-.35-4.77a13.21 13.21 0 0 1 2.91-5.69c3.49-3.83 8.29-2 12.34-.25.59.26 2.09 1.2 2.74.73.65-.47-.12-1.32-.4-1.69-1.64-2.16-7.37-7-2.48-8.9 1.82-.69 6.79-.91 4.33-4-2.18-2.69-6-3.22-8.46-.75-2.46 2.47-3.82 6.09-6.12 8.84a11.8 11.8 0 0 1-13 3.74 10.7 10.7 0 0 1-6.24-4.6c-.6-1.07-1.38-2.78-.92-4 .4-1.1 1.68-1.23 2.68-1.2 4 .08 8.23 2.17 11.54 4.32 1.28.83 2.21 1.76 2.3-.24a35.996 35.996 0 0 1 1.5-7.65 23.632 23.632 0 0 1 2.77-6.2c.65-1.08 2.95-5.51 4-2.39.386 1.492.465 3.047.23 4.57 0 .16.27.16.28 0z" class="outline"/><g><path d="M339.747 179.701a149.704 149.704 0 0 0-11-12.94l-.22.51 25.6-1.64c.38 0 .38-.62 0-.6l-25.6 1.64a.317.317 0 0 0-.261.191.308.308 0 0 0 .051.319 148.737 148.737 0 0 1 10.91 12.86c.23.31.75 0 .52-.3v-.04zM357.757 167.611a140.525 140.525 0 0 1-17.89 16.78c-.21.17 0 .51.21.51 18.073-.173 36.14.067 54.2.72a.3.3 0 0 0 .234-.121.307.307 0 0 0 .056-.259l-2.19-5.79c-.13-.36-.71-.21-.58.15l2.19 5.8.29-.38c-18.06-.666-36.127-.906-54.2-.72l.22.51a141.122 141.122 0 0 0 17.93-16.77c.26-.29-.17-.72-.43-.43h-.04z" class="outline"/><path d="m351.417 185.321-.31 2.71.3-.3-46.15.54.22.52 12.22-11.75 3-2.89c1.07-1 2.07-2.41 3.69-2.36 2.88.09 5.76.34 8.63.5.39 0 .39-.58 0-.6-3-.17-6-.58-9-.5a3.173 3.173 0 0 0-2.32 1.18c-1.13 1.07-2.24 2.15-3.37 3.23l-13.28 12.74a.299.299 0 0 0-.063.325c.022.054.06.1.109.134a.29.29 0 0 0 .164.051l46.15-.54a.308.308 0 0 0 .3-.3l.31-2.71c0-.38-.55-.38-.6 0v.02zM353.767 188.892c16.38.666 32.753 1.396 49.12 2.189.39 0 .39-.579 0-.599-16.373-.82-32.747-1.55-49.12-2.19-.39 0-.39.58 0 .6zM406.307 178.971c16.135-.26 32.273.361 48.34 1.86.38 0 .38-.57 0-.6a443.474 443.474 0 0 0-48.34-1.86.3.3 0 0 0 0 .6z" class="outline"/><path d="M451.227 168.521a41.447 41.447 0 0 0 2.89 11.91c.15.35.67.05.52-.3a40.729 40.729 0 0 1-2.81-11.61c0-.38-.64-.39-.6 0zM391.327 188.041l54.17-.37c.38 0 .39-.61 0-.6l-54.17.37a.3.3 0 0 0 0 .6zM371.287 166.771c-2.26 2.82-4.513 5.644-6.76 8.47a.299.299 0 0 0-.063.325.297.297 0 0 0 .273.185l56.65 1 16.22.29a.299.299 0 0 0 .212-.512.3.3 0 0 0-.212-.088l-56.65-1-16.22-.29.21.51c2.26-2.82 4.513-5.643 6.76-8.47.24-.3-.18-.72-.42-.42z" class="outline"/><path d="M363.227 168.222a132.394 132.394 0 0 1-11.27 12.16.3.3 0 0 0-.077.154.306.306 0 0 0 .124.308.318.318 0 0 0 .163.058l47-2.34c.38 0 .39-.62 0-.6l-47 2.34.21.51a132.48 132.48 0 0 0 11.28-12.17c.24-.29-.18-.72-.43-.42z" class="outline"/><path d="m399.457 178.371 1-2.12a.305.305 0 0 0 .066-.243.296.296 0 0 0-.267-.248.31.31 0 0 0-.128.015.313.313 0 0 0-.11.068.322.322 0 0 0-.071.108c-.33.71-.67 1.41-1 2.12a.298.298 0 0 0 .11.41.298.298 0 0 0 .41-.11h-.01zM419.367 190.401l60.9-.6a.299.299 0 0 0 .212-.512.3.3 0 0 0-.212-.088l-60.9.6c-.38 0-.39.61 0 .6zM445.967 186.962a28.368 28.368 0 0 1-3.31-4.38c-.2-.33-.72 0-.52.3a28.256 28.256 0 0 0 3.41 4.5c.26.29.68-.14.42-.42zM397.637 160.811a404.262 404.262 0 0 1 31.89.26c.38 0 .38-.58 0-.6-10.62-.5-21.25-.586-31.89-.26a.3.3 0 0 0 0 .6z" class="outline"/><path d="M429.347 161.041a48.113 48.113 0 0 0 8 15.53c.23.31.75 0 .52-.3a47.576 47.576 0 0 1-7.95-15.39.293.293 0 0 0-.053-.104.274.274 0 0 0-.089-.077.308.308 0 0 0-.228-.029.313.313 0 0 0-.182.142.31.31 0 0 0-.037.111.307.307 0 0 0 .009.117h.01zM406.807 176.352l-.79 2.09a.322.322 0 0 0 .21.37.312.312 0 0 0 .37-.21l.79-2.09a.293.293 0 0 0-.028-.229.295.295 0 0 0-.182-.141.32.32 0 0 0-.37.21zM480.427 189.192a133.95 133.95 0 0 1-11.87-14.58 13.213 13.213 0 0 0-2.24-3.08c-.8-.6-2-.43-2.92-.44-3.273 0-6.547.033-9.82.1-.38 0-.38.61 0 .6 2.96-.08 5.913-.117 8.86-.11h2.16a2.725 2.725 0 0 1 2.29 1.53c.8 1.19 1.63 2.37 2.47 3.53a135.32 135.32 0 0 0 10.65 12.85c.26.29.69-.14.42-.42v.02z" class="outline"/><path d="M451.797 168.521c-.11-1.06-.17-2.13-.18-3.19a.29.29 0 0 0-.3-.3l-19.49.62c-.38 0-.38.61 0 .6l19.49-.62-.3-.3c0 1.06.07 2.13.18 3.19 0 .38.64.38.6 0zM337.807 147.372c-.27-.06-.54-.17-.81-.21-.27-.04-.49 0-.07 0 .75 0 1.57-.08 2.33-.1 2.2-.08 4.4-.24 6.6-.33a51.384 51.384 0 0 0 10.73-1.75 62.14 62.14 0 0 0 18.53-8.73 29.652 29.652 0 0 0 4.28-3.62c1.54-1.54 3.14-3.62 5.32-4.22 2.18-.6 4.84.75 6.61 1.91 1.14.75 2.13 1.63 3.33 2.31 6.5 3.71 14.23 4.72 21.61 4.59 2.64-.05 5.28-.26 7.9-.56a12.096 12.096 0 0 0 2-.22c.65-.19-.44-.17-.72-.12a21.127 21.127 0 0 0-3.77 1.36c-6.26 2.51-11.7 6.28-17 10.33a100.965 100.965 0 0 0-9.06 7.6c-1.91 1.85-3.47 3.81-5.68 5.32a28.307 28.307 0 0 1-2.63 1.59c-1 .56-2.12 1.22-3.33 1a7.436 7.436 0 0 1-4.21-3.24 13.513 13.513 0 0 1-2-4.21c-.16-.58-.23-2.07-1-2.22-.77-.15-1.33 1.19-1.54 1.69a12.267 12.267 0 0 1-4.74 5.39c-3.39 2-7.51 2-11.22.89a27.346 27.346 0 0 1-9.94-5.93c-2.62-2.26-5-4.85-7.87-6.81a11.142 11.142 0 0 0-3.6-1.71.25.25 0 0 0-.13.48c3.46.87 6.16 3.76 8.7 6.1 3.06 2.82 6.24 5.61 10.06 7.36a17.363 17.363 0 0 0 11 1.41 12.473 12.473 0 0 0 8.19-6.93c.23-.47.66-1.87 1.22-1.12.315.738.53 1.515.64 2.31a13.926 13.926 0 0 0 2 3.82 8.556 8.556 0 0 0 3.43 2.91c1.72.7 3 .08 4.57-.76a24.542 24.542 0 0 0 6.62-5.16 79.05 79.05 0 0 1 9.93-8.72c2.79-2.14 5.63-4.27 8.58-6.18a52.84 52.84 0 0 1 6.07-3.37c1.34-.64 2.71-1.22 4.09-1.74a25.602 25.602 0 0 0 3.83-1.35.241.241 0 0 0 .11-.28c-.23-.6-2.58 0-3 .06a81.217 81.217 0 0 1-8.51.52 50.61 50.61 0 0 1-11.51-1.19c-3.74-.86-7.72-2.22-10.76-4.63-2.41-1.92-6.21-4.13-9.31-2.63-1.82.89-3.19 2.59-4.6 4a29.898 29.898 0 0 1-4.85 4 62.494 62.494 0 0 1-19.51 8.67 75.614 75.614 0 0 1-13.9 1.57c-1.09 0-2.18.06-3.27.12a2.694 2.694 0 0 0-1.2.15c-.84.64 1 1 1.36 1.08.36.08.42-.43.1-.5z" class="outline"/><path d="M357.387 161.702a59.245 59.245 0 0 0 17.56 3.53c3.83.225 7.666-.323 11.28-1.61.3-.11.17-.6-.13-.49a28.33 28.33 0 0 1-11.11 1.6 58.44 58.44 0 0 1-17.43-3.51c-.3-.11-.43.38-.13.48h-.04z" class="outline"/><path d="M367.387 162.042c.47.42 2.68-.81 3.75-1.55a10.404 10.404 0 0 0 2.43-2.34 17.298 17.298 0 0 0 1.78-2.71c.168-.323.372-.625.61-.9.3-.34.46-.53.64-.52.18.01.47.68.91 2 .29.87.63 1.72.94 2.58a.922.922 0 0 0 .1.23c.21.322.514.573.87.72 1 .42 13.5-7.91 11.72-11.63-1-2.14-6.7-2.71-10.92-.88-7.59 3.28-10.95 11.68-16.08 12.58-2.47.43-4.25-1-3.73-2.07.71-1.4 5.45-1.77 6.81-3.75 1.62-2.35-3.1-4.65-2.17-5.63.93-.98 5.49 2.05 10.44-.38 4.67-2.29 8.56-8.89 7.26-9.8-1.3-.91-8.24 3.15-8.38 4.48-.18 1.63 9.4 1.29 13.72-3 2.38-2.36 2.71-6.66 1.65-7.25-3.28-1.8-24.24 28.19-22.35 29.82z" fill="#FED0E5"/><path d="M367.297 162.232c1.09.6 3.24-1.06 4.05-1.64a15.178 15.178 0 0 0 4.15-5c.19-.33.73-1.45 1.24-1.19.25.13.52 1.47.6 1.7.24 1.056.645 2.069 1.2 3 .6.77 1.13.68 1.89.33a29.318 29.318 0 0 0 7.27-5.12c1.45-1.32 4.33-3.84 3.73-6.13-.35-1.31-1.89-1.88-3.07-2.15a13.486 13.486 0 0 0-6.41.22c-4.45 1.17-7.79 4.58-10.82 7.84a28.876 28.876 0 0 1-4.29 4.12 7.383 7.383 0 0 1-2.3 1.13c-.93.24-4.43.25-4-1.58.18-.8 1.64-1.18 2.27-1.41.89-.33 1.8-.62 2.66-1 1.17-.56 2.53-1.51 2.24-3a4.004 4.004 0 0 0-.85-1.61c-.44-.55-1.45-1.27-1.64-2-.29-1.07 1.65-.48 2.19-.36.963.219 1.938.379 2.92.48 4.73.36 8.54-2.59 11.12-6.31.6-.87 3.31-5.2.42-4.85-1.481.302-2.89.886-4.15 1.72-1.07.62-2.66 1.44-3.32 2.56-1.11 1.9 3.63 1.53 4.35 1.45 3.49-.34 7.66-1.56 10-4.39a8.081 8.081 0 0 0 1.78-5.47c-.05-.65-.22-1.53-1-1.63-1.25-.16-2.75 1.52-3.52 2.26-4.35 4.18-8 9.25-11.38 14.18-1.76 2.53-3.47 5.12-5 7.78a17.48 17.48 0 0 0-2.42 5c-.06.31-.14.71.11 1a.18.18 0 0 0 .25-.25c-.54-.54.85-2.81 1.09-3.28 1.08-2.1 2.33-4.11 3.61-6.09a139.997 139.997 0 0 1 10.53-14.32 37.59 37.59 0 0 1 4.54-4.73 5.374 5.374 0 0 1 1.71-1.12c1.09-.33 1.17 1 1.14 1.82-.16 4.57-4 7.14-8 8.26-1.654.478-3.368.72-5.09.72-.64 0-3 0-2.24-1.11.76-1.11 2.34-1.91 3.47-2.54 1.13-.63 2.89-1.77 4.11-1.5 1.22.27-.36 3-.73 3.61a17.822 17.822 0 0 1-4 4.58 10.253 10.253 0 0 1-7.27 2.3c-1.01-.1-2.012-.267-3-.5a5.14 5.14 0 0 0-1.83-.24.73.73 0 0 0-.62 1.14c.58 1.27 2.11 1.94 2.43 3.39.49 2.16-2.75 3-4.22 3.54-.87.32-2.45.68-2.86 1.64-.41.96.81 1.89 1.66 2.16a5.52 5.52 0 0 0 4.23-.6c3-1.65 5.07-4.7 7.44-7.05 3.31-3.28 7.24-5.86 12.05-5.88 1.58 0 4.53.16 5.32 1.89.49 1.05-.26 2.29-.85 3.14a26.354 26.354 0 0 1-6.81 6.16 22.302 22.302 0 0 1-3 1.77 1.917 1.917 0 0 1-.88.31c-1.1-.16-1.54-2.59-1.82-3.41-.2-.58-.42-2.42-1.38-2-.68.3-1.08 1.43-1.43 2a15.748 15.748 0 0 1-2.47 3.26 11.965 11.965 0 0 1-2.05 1.56c-.58.36-2.18 1.48-2.88 1.1a.18.18 0 0 0-.072-.02.184.184 0 0 0-.138.046.193.193 0 0 0-.065.13.203.203 0 0 0 .046.138.219.219 0 0 0 .059.046z" class="outline"/></g><g><path d="M224.925 30.73a163.491 163.491 0 0 1-34.51 29.65c-3.127 2-6.32 3.892-9.58 5.68a.302.302 0 0 0-.11.41.3.3 0 0 0 .41.11 164.321 164.321 0 0 0 35.91-26.64 201.431 201.431 0 0 0 8.27-8.78c.26-.29-.16-.72-.42-.43h.03zM254.685 59.07a97.005 97.005 0 0 0-35.44 28.39 97.446 97.446 0 0 0-5.48 7.79c-.21.33.31.63.52.31a95.623 95.623 0 0 1 40.71-36c.35-.17 0-.68-.31-.52v.03z" class="outline"/><path d="M180.775 66.53a88.026 88.026 0 0 0 16.92 10.46 38.307 38.307 0 0 1 6.47 3.47 21.154 21.154 0 0 1 4.86 5 31.855 31.855 0 0 1 4.44 10.23c.09.38.67.22.58-.16-1.4-5.41-3.84-10.7-8.11-14.45a24.57 24.57 0 0 0-5.9-3.69c-3.2-1.51-6.37-3.05-9.42-4.86a86.31 86.31 0 0 1-9.42-6.46c-.3-.24-.73.19-.42.42v.04z" class="outline"/><path d="M228.855 43.97c-4.85-3.62-24.86 10.18-23.54 15.7.74 3.07 8.47 4.94 14.1 2.35 8-3.67 8.24-14.72 14.26-15.4 2.89-.32 5.8 1.85 5.63 3.2-.23 1.82-6 1.83-6.77 4.37-.93 3 6.06 6.65 5.36 7.89-.7 1.24-7.84-3.36-12.91-.58-4.77 2.62-6.55 11.18-4.5 12.54 2.05 1.36 8.85-3.4 8.4-5.2-.54-2.19-12.38-2.74-15.78 2.63-2.22 3.49-.78 9.39 1.34 9.68 5.28.7 20.47-32.67 14.41-37.18z" fill="#FFE271"/><path d="M228.925 43.86c-2.08-1.46-5.35-.18-7.4.67a40.907 40.907 0 0 0-9.65 5.83c-2.4 1.91-5.19 4.26-6.39 7.17-1.26 3.09 1.72 4.76 4.37 5.41a13.998 13.998 0 0 0 13.13-3.27c3-3 4.28-7.05 6.79-10.36 1.34-1.76 3.13-2.9 5.42-2.52 1.3.21 3.21 1 3.81 2.29.6 1.29-1 1.84-1.94 2.2-1.44.52-3.45.93-4.37 2.29-.77 1.16-.18 2.45.57 3.44 1.14 1.51 2.74 2.56 4 4 .64.72.68 1.32-.44 1.15a23.455 23.455 0 0 1-2.73-.75c-4.24-1.22-8.73-1.55-11.73 2.25a13.901 13.901 0 0 0-2.55 5.51 7.157 7.157 0 0 0 0 4.2c1.24 2.88 6.06-.62 7.38-1.75.68-.57 2.13-1.76 1.81-2.83-.24-.81-1.45-1.11-2.15-1.28a16.53 16.53 0 0 0-10.54 1.09 8.079 8.079 0 0 0-4 10.07c.34 1 1 2.59 2.35 2.57a2.998 2.998 0 0 0 1.72-.79c2.07-1.62 3.55-4.11 4.87-6.33a78.894 78.894 0 0 0 4.87-9.84 65.975 65.975 0 0 0 3.51-10.59c.57-2.48 1.17-5.37.49-7.89a3.54 3.54 0 0 0-1.18-1.95c-.12-.1-.3.08-.18.18 1.58 1.23 1.46 3.8 1.3 5.58a40.429 40.429 0 0 1-2.1 9.06 70.755 70.755 0 0 1-8.65 18.11c-1 1.41-2.45 3.72-4.25 4.18-1.8.46-2.53-2.23-2.76-3.49a8.002 8.002 0 0 1 1.67-6.88c2.55-2.7 7-3.38 10.53-3.19a7.42 7.42 0 0 1 3.87.93c1.34 1-.93 2.77-1.71 3.39-1.38 1.08-3.25 2.33-5.05 2.41-1.8.08-1.88-1.87-1.78-3.22.28-4.09 2.8-9 7.09-10a14.43 14.43 0 0 1 7 .66c.93.26 2.75 1.2 3.74.82 1.66-.64-2.93-4.15-3.36-4.61-1.3-1.36-2.62-3.38-.62-4.8 1.4-1 3.17-1.18 4.67-2 1-.51 1.43-1.27.76-2.27a6.003 6.003 0 0 0-5-2.28c-3.13.11-4.87 3-6.24 5.48-2 3.57-3.91 7.44-7.63 9.53a14 14 0 0 1-7.61 1.61c-2.14-.11-4.84-.61-6.41-2.22-2.08-2.15.53-5.18 2-6.81a38.768 38.768 0 0 1 8.43-6.71c2.74-1.68 5.87-3.39 9.11-3.78a4.29 4.29 0 0 1 3 .52c.16.12.29-.1.16-.19zM224.925 31.16a111.494 111.494 0 0 0 20.94 13.51c2.65 1.38 5.59 2.76 7.64 5 2.5 2.72 2.39 6.3 1.05 9.57-.15.36.43.51.58.16a9.988 9.988 0 0 0 .37-7.75 10.4 10.4 0 0 0-3.74-4.26 60.12 60.12 0 0 0-7.25-4.09c-3.18-1.66-6.33-3.37-9.35-5.3a90.73 90.73 0 0 1-9.85-7.27c-.29-.24-.72.18-.42.43h.03z" class="outline"/></g><g><path d="M125.437 13.634c-5.42 3.19-7.62 12.2-5 14.59 3.06 2.81 13.66-2.54 16-7.4a4.18 4.18 0 0 0 .5-1.66c.22-3.7-5.4-6.33-4.76-7.52.08-.13.14-.08 2-.54 1.15-.29 1-.28 3-.8l1.78-.46c1.37-.37 2.06-.63 2.12-.52.06.11-2.35 1.35-2.16 2.15.07.26.4.39.53.44 2.71 1.13 13.55-2 14.36-1.41.81.59-11.32 3.71-12.77 7.1-1.36 3.19 7.12 5.91 10.65 5 3.53-.91 4.26-5.63 1.7-5.75-3.1-.13-14.84 6.37-11.66 9.35 2.07 2 10.41 2.33 12.73 1.2.58-.28.68-.51.74-.68 1.29-3.54-19.47-19.15-29.76-13.09z" fill="#CEC9EF"/><path d="M125.377 13.524a13.86 13.86 0 0 0-6 9.31c-.39 2.2-.41 5.49 2.28 6.16 3.25.8 7.19-1.31 9.8-3 2.41-1.58 6.23-4.54 5.47-7.89a8.57 8.57 0 0 0-2.76-4 15.564 15.564 0 0 1-1.58-1.56c-.65-.83-.17-.9.63-1.1 1.75-.41 3.48-.9 5.22-1.34.69-.18 1.36-.42 2.06-.58.46-.11.43-.17 0 .09s-.68.45-1 .7c-.82.66-1.14 1.45.09 1.81 1.347.265 2.733.265 4.08 0 1.85-.23 3.69-.59 5.52-.93.72-.14 1.44-.27 2.16-.39a5.86 5.86 0 0 1 1.94-.23c.48.11.18.18-.17.37-.579.283-1.173.533-1.78.75-1.48.58-3 1.15-4.44 1.78a22.018 22.018 0 0 0-4.52 2.41 3.446 3.446 0 0 0-1.69 2.44c0 2.8 4.88 4 6.91 4.39 2.88.53 6.54.21 7.26-3.27a2.131 2.131 0 0 0-.94-2.52c-.95-.39-2.21.11-3.1.43a22.914 22.914 0 0 0-8.26 5c-1.51 1.51-2.38 3.52 0 4.66 2.92 1.41 7 1.53 10.19 1.05.89-.13 2.4-.36 2.57-1.46a3 3 0 0 0-.66-1.87 22.06 22.06 0 0 0-5.68-5.43c-5.39-3.95-12.74-7.87-19.65-7a10.589 10.589 0 0 0-4 1.3c-.14.08 0 .3.12.22 3.9-2.23 8.72-1.39 12.74 0a40.898 40.898 0 0 1 12 6.75c1.06.84 6.82 5.38 4.13 6.82-1.84 1-4.72.69-6.7.51-1.67-.14-5.32-.35-6.22-2.13-.79-1.52 1.27-3.25 2.29-4.09a25.292 25.292 0 0 1 5.72-3.46c1.21-.54 4.4-2.15 5.15-.24 1 2.47-1.89 4.61-4 4.74-2.48.16-12.86-2.25-8.56-6.16 2.93-2.69 7.23-3.64 10.72-5.14.36-.15 1.68-.59 1-1-.3-.21-1.07 0-1.4 0-1.05.13-2.09.34-3.14.54-2.52.57-5.082.94-7.66 1.11-.77 0-3.41-.09-2-1.39.34-.31 1.58-.79 1.63-1.32a.11.11 0 0 0-.06-.11c-.38-.22-1.24.23-1.59.34-.73.21-1.46.38-2.2.57l-2.6.7a8.997 8.997 0 0 0-2.47.56c-.52.36-.16.9.16 1.3 1.14 1.42 2.71 2.4 3.67 4 2.67 4.44-3.58 8.59-6.9 10.29-2.55 1.31-8.54 3.77-9.57-.58-1.09-4.57 2-10.35 5.87-12.69.18-.09.05-.32-.08-.22zM92.607 35.714a21.9 21.9 0 0 1 12.62-9.45.303.303 0 0 0 .182-.141.303.303 0 0 0-.114-.41.3.3 0 0 0-.228-.029 22.53 22.53 0 0 0-13 9.73c-.2.32.32.63.52.3h.02z" class="outline"/><path d="M92.977 26.624c9-7.08 19-12.92 30-16.23a66 66 0 0 1 21-2.88c3.52.1 7.27.24 10.56 1.57a59.24 59.24 0 0 1 9.35 4.78 24.216 24.216 0 0 0 6.51 3.21c3.271.821 6.677.947 10 .37l-.17-.42a139.052 139.052 0 0 1-18.55 11.78c-2.87 1.59-5.78 3.1-8.76 4.46a37.536 37.536 0 0 1-9.25 3.16 6.74 6.74 0 0 1-3.31-.06 9.287 9.287 0 0 1-1.84-1.15 14.248 14.248 0 0 1-3.45-2.67 2.88 2.88 0 0 0-1.52-1.21c-.9-.16-1.31.5-1.88 1.05a9.66 9.66 0 0 1-6.35 2.38c-3.52 0-6.67-2-9.54-3.83-3.22-2-6.44-4.17-10.12-5.32-3.68-1.15-8.62-1.63-12.19.13-4 2-3.24 6.66-1.38 9.92a.25.25 0 0 0 .43-.25 10 10 0 0 1-1.51-5.15c.09-2.72 2.19-4.2 4.64-4.74a20.09 20.09 0 0 1 11.9 1.32c3.49 1.46 6.53 3.69 9.75 5.63 2.64 1.59 5.59 3 8.76 2.76a10.79 10.79 0 0 0 5.31-2c1-.71 1.65-2.12 3-.73.719.81 1.517 1.546 2.38 2.2 1.16.78 2.44 1.93 3.85 2.25a8.07 8.07 0 0 0 3 0 34.707 34.707 0 0 0 8.46-2.79c3-1.31 5.92-2.8 8.79-4.36a141.038 141.038 0 0 0 19.73-12.38c.22-.18 0-.45-.24-.42a23.462 23.462 0 0 1-10-.44 25.117 25.117 0 0 1-6.26-3.18 60.337 60.337 0 0 0-9-4.61 17.308 17.308 0 0 0-4.35-1.18 64.743 64.743 0 0 0-5.56-.5c-13.27-.62-26.32 3.15-37.9 9.49a104.48 104.48 0 0 0-14.58 9.73c-.25.2.1.55.35.35l-.06-.04z" class="outline"/><path d="M122.147 34.804a40.2 40.2 0 0 0 23.24 1.79c.31-.07.18-.55-.14-.48a39.8 39.8 0 0 1-23-1.79c-.3-.12-.43.36-.13.48h.03z" class="outline"/></g></svg>