<svg viewBox="0 0 372 99" fill="none" xmlns="http://www.w3.org/2000/svg">
<path d="M177.215 71.3659C191.386 72.2308 205.609 71.2221 219.515 68.3659C223.135 67.6192 226.722 66.7359 230.275 65.7159C230.676 65.5333 231.1 65.4088 231.535 65.3459C231.915 65.4659 231.895 65.6359 232.055 66.0059C232.315 66.5659 232.585 67.1159 232.865 67.6659C233.513 69.052 234.325 70.3547 235.285 71.5459C239.098 75.869 244.013 79.0764 249.505 80.8259C252.812 81.7618 256.044 82.9417 259.175 84.3559C262.144 85.8244 264.935 87.626 267.495 89.7259L267.665 89.3059C263.996 89.0847 260.314 89.3979 256.735 90.2359C253.875 90.9159 251.135 91.9159 248.205 92.3359C244.575 92.7591 240.915 92.8728 237.265 92.6759C233.642 92.6146 230.024 92.3676 226.425 91.9359C225.245 91.7859 224.065 91.6059 222.885 91.4059C222.255 91.2959 220.955 90.7759 220.375 90.9659C220.005 91.0959 219.585 91.7359 219.295 91.9659C218.674 92.5442 218.005 93.0694 217.295 93.5359C215.635 94.6233 213.765 95.3484 211.806 95.6637C209.846 95.979 207.843 95.8776 205.925 95.3659C202.795 94.4726 199.863 92.9931 197.285 91.0059C195.248 89.5906 193.388 87.9354 191.745 86.0759C189.955 83.9659 188.445 81.6459 186.615 79.5559C183.813 76.4232 180.741 73.5422 177.435 70.9459C177.185 70.7459 176.825 71.0959 177.085 71.2959C180.147 73.7126 183.012 76.3675 185.655 79.2359C187.465 81.2359 188.995 83.4059 190.655 85.5159C193.979 89.6632 198.286 92.9149 203.185 94.9759C206.406 96.4154 210.008 96.7664 213.445 95.9759C215.086 95.5369 216.634 94.8051 218.015 93.8159C218.563 93.4267 219.087 93.006 219.585 92.5559C219.805 92.3059 220.046 92.0751 220.305 91.8659C220.795 91.5259 221.305 91.7159 221.855 91.8659C229.441 93.2261 237.159 93.7093 244.855 93.3059C248.25 93.0561 251.605 92.4186 254.855 91.4059C259.017 90.1877 263.357 89.6939 267.685 89.9459C267.736 89.9472 267.785 89.9333 267.828 89.9059C267.87 89.8786 267.903 89.839 267.923 89.7925C267.942 89.746 267.947 89.6947 267.937 89.6454C267.927 89.596 267.902 89.5509 267.865 89.5159C265.157 87.2856 262.193 85.3856 259.035 83.8559C255.715 82.4381 252.312 81.2226 248.845 80.2159C244.977 78.9028 241.418 76.8134 238.385 74.0759C237.034 72.9365 235.837 71.6254 234.825 70.1759C233.78 68.5289 232.877 66.796 232.125 64.9959C232.094 64.95 232.05 64.9148 231.998 64.8951C231.946 64.8754 231.889 64.8722 231.835 64.8859C214.123 70.0527 195.65 72.1098 177.235 70.9659C176.925 70.8159 176.925 71.3659 177.215 71.3659Z" class="outline"/>
<path d="M235.495 80.3658C235.045 76.4558 211.605 70.5658 208.335 73.2458C206.505 74.7458 210.155 79.5858 215.775 81.7058C221.015 83.7058 223.965 82.6258 236.655 83.9158C241.875 84.4358 245.405 84.8158 245.515 85.8358C245.625 86.8558 241.675 88.9058 237.745 88.6658C233.545 88.4058 230.405 85.7158 230.225 86.0058C230.045 86.2958 234.635 88.8758 234.225 90.0758C233.815 91.2758 228.695 91.4558 224.695 89.0158C221.895 87.3058 222.145 85.7958 219.815 84.5358C214.995 81.9058 207.115 84.8858 207.445 86.5358C207.775 88.1858 215.785 90.1058 216.845 89.2258C218.145 88.1458 210.845 81.5558 204.565 81.6258C200.485 81.6858 196.995 84.5658 198.165 85.8158C201.065 88.9458 236.065 85.2358 235.495 80.3658Z" fill="#B8E6CA"/>
<path d="M235.645 80.3057C235.345 78.4057 232.115 77.3057 230.645 76.6657C227.206 75.2607 223.64 74.1891 219.995 73.4657C216.916 72.6852 213.74 72.3485 210.565 72.4657C209.736 72.4585 208.922 72.695 208.225 73.1457C207.325 73.9357 207.785 75.2557 208.285 76.1457C210.285 79.6157 214.455 81.7557 218.225 82.6357C221.295 83.3457 224.525 83.2657 227.665 83.4157C230.505 83.5424 233.342 83.7491 236.175 84.0357C238.855 84.2957 241.865 84.3057 244.425 85.2157C244.665 85.2957 245.205 85.4557 245.325 85.7557C245.545 86.3257 244.585 86.8657 244.225 87.0857C242.77 87.9047 241.151 88.3897 239.485 88.5057C236.637 88.6428 233.814 87.9067 231.395 86.3957C231.225 86.3057 229.965 85.3957 230.095 86.1557C230.145 86.4557 230.835 86.8257 231.095 86.9957C231.889 87.5391 232.645 88.1372 233.355 88.7857C234.195 89.6157 234.355 90.3057 233.065 90.6257C231.848 90.8706 230.593 90.8706 229.375 90.6257C226.472 90.1746 223.849 88.6376 222.035 86.3257C219.235 82.8057 214.035 82.8457 210.145 84.3257C209.295 84.6457 207.545 85.3257 207.335 86.3257C207.155 87.2457 208.495 87.7957 209.145 88.0857C210.816 88.8141 212.579 89.3088 214.385 89.5557C215.025 89.6457 216.685 90.0057 217.095 89.2557C217.505 88.5057 216.355 87.3657 215.915 86.9057C214.464 85.4236 212.774 84.1964 210.915 83.2757C207.165 81.3557 201.985 80.5357 198.655 83.7857C196.835 85.5657 198.495 86.5257 200.255 86.7857C202.937 87.1723 205.653 87.2695 208.355 87.0757C211.925 86.9457 215.505 86.6057 219.045 86.1257C222.433 85.7089 225.79 85.0742 229.095 84.2257C231.035 83.7057 233.505 83.1257 235.015 81.7057C235.224 81.5485 235.392 81.3443 235.507 81.1097C235.622 80.8751 235.679 80.6168 235.675 80.3557C235.675 80.1657 235.365 80.1657 235.375 80.3557C235.495 81.8457 232.825 82.6957 231.805 83.0657C229.172 83.9662 226.465 84.6354 223.715 85.0657C217.404 86.2659 210.99 86.8453 204.565 86.7957C202.765 86.7957 200.365 86.8857 198.715 86.0057C196.845 85.0057 199.855 83.0857 200.775 82.6657C203.171 81.5996 205.889 81.517 208.345 82.4357C210.536 83.185 212.569 84.3308 214.345 85.8157C214.905 86.2757 217.345 88.1657 216.755 89.0657C216.165 89.9657 213.135 88.9657 212.415 88.7857C211.035 88.4457 208.855 88.0257 207.855 86.9057C206.855 85.7857 210.115 84.5257 210.855 84.2857C213.036 83.5555 215.37 83.4073 217.625 83.8557C218.853 84.0988 219.994 84.661 220.935 85.4857C221.685 86.1957 222.215 87.1057 222.935 87.8357C224.647 89.3966 226.778 90.4221 229.065 90.7857C230.065 90.9757 235.885 91.4657 233.945 88.9857C232.964 87.8996 231.828 86.963 230.575 86.2057C230.375 86.0657 230.135 85.9557 230.445 86.2057C230.755 86.4557 230.965 86.4857 231.215 86.6257C231.979 87.0627 232.767 87.4567 233.575 87.8057C235.837 88.7633 238.329 89.0379 240.745 88.5957C242.145 88.3357 244.645 87.7457 245.455 86.3757C246.675 84.2957 239.355 84.0357 238.505 83.9457C233.785 83.4457 229.075 83.1457 224.345 82.9457C221.635 82.9502 218.939 82.5526 216.345 81.7657C213.965 80.9808 211.796 79.6603 210.005 77.9057C209.135 77.0357 206.915 74.5357 208.415 73.3157C209.197 72.8661 210.096 72.6606 210.995 72.7257C212.379 72.6874 213.764 72.7643 215.135 72.9557C218.582 73.4094 221.987 74.1418 225.315 75.1457C228.269 75.8745 231.097 77.0407 233.705 78.6057C234.335 79.0257 235.155 79.6057 235.285 80.3957C235.385 80.5757 235.675 80.4957 235.645 80.3057Z" class="outline"/>
<path d="M208.735 96.2558C223.664 97.4764 238.689 95.965 253.075 91.7958C253.11 91.7627 253.135 91.7202 253.146 91.6735C253.157 91.6268 253.155 91.5779 253.139 91.5325C253.123 91.4871 253.095 91.4473 253.057 91.4177C253.019 91.3882 252.973 91.3702 252.925 91.3658C238.581 95.5187 223.599 97.0233 208.715 95.8058C208.395 95.8058 208.395 96.2758 208.715 96.3058L208.735 96.2558Z" class="outline"/>
<path d="M299.553 65.9517C305.193 68.0117 311.114 69.202 317.113 69.4817C320.943 69.7068 324.779 69.1592 328.393 67.8717C328.693 67.7617 328.563 67.2717 328.263 67.3817C324.703 68.6509 320.926 69.195 317.153 68.9817C311.198 68.7077 305.32 67.524 299.723 65.4717C299.423 65.3617 299.293 65.8517 299.593 65.9517H299.553Z" class="outline"/>
<path d="M279.973 51.6216C279.703 51.5616 279.433 51.4516 279.163 51.4116C278.893 51.3716 278.673 51.4116 279.093 51.4116C279.843 51.4116 280.663 51.3316 281.423 51.3116C283.623 51.2316 285.823 51.0716 288.023 50.9816C291.651 50.7796 295.248 50.193 298.753 49.2316C305.37 47.3676 311.632 44.4174 317.283 40.5016C318.821 39.4331 320.254 38.221 321.563 36.8816C323.103 35.3416 324.703 33.2616 326.883 32.6616C329.063 32.0616 331.723 33.4116 333.493 34.5716C334.633 35.3216 335.623 36.2016 336.823 36.8816C343.323 40.5916 351.053 41.6016 358.433 41.4716C361.073 41.4216 363.713 41.2116 366.333 40.9116C367.004 40.8944 367.673 40.8208 368.333 40.6916C368.983 40.5016 367.893 40.5216 367.613 40.5716C366.316 40.905 365.054 41.3604 363.843 41.9316C357.583 44.4416 352.143 48.2116 346.843 52.2616C343.677 54.6162 340.652 57.1539 337.783 59.8616C335.873 61.7116 334.313 63.6716 332.103 65.1816C331.255 65.7589 330.377 66.2897 329.473 66.7716C328.473 67.3316 327.353 67.9916 326.143 67.7716C324.388 67.2474 322.889 66.0936 321.933 64.5316C321.027 63.2549 320.35 61.8303 319.933 60.3216C319.773 59.7416 319.703 58.2516 318.933 58.1016C318.163 57.9516 317.603 59.2916 317.393 59.7916C316.386 62.0209 314.735 63.8981 312.653 65.1816C309.263 67.1816 305.143 67.1816 301.433 66.0716C297.734 64.8276 294.344 62.8055 291.493 60.1416C288.873 57.8816 286.493 55.2916 283.623 53.3316C282.535 52.5501 281.316 51.9708 280.023 51.6216C279.962 51.6118 279.899 51.6248 279.847 51.6584C279.795 51.6919 279.758 51.7434 279.741 51.8031C279.725 51.8627 279.732 51.9263 279.76 51.9814C279.788 52.0365 279.835 52.0794 279.893 52.1016C283.353 52.9716 286.053 55.8616 288.593 58.2016C291.653 61.0216 294.833 63.8116 298.653 65.5616C302.066 67.2217 305.93 67.717 309.653 66.9716C311.448 66.4995 313.115 65.6322 314.532 64.4333C315.949 63.2343 317.08 61.7339 317.843 60.0416C318.073 59.5716 318.503 58.1716 319.063 58.9216C319.377 59.6599 319.593 60.4367 319.703 61.2316C320.167 62.6011 320.842 63.8899 321.703 65.0516C322.566 66.3104 323.75 67.3152 325.133 67.9616C326.853 68.6616 328.133 68.0416 329.703 67.2016C332.189 65.8749 334.429 64.1293 336.323 62.0416C339.384 58.8633 342.705 55.9465 346.253 53.3216C349.043 51.1816 351.883 49.0516 354.833 47.1416C356.78 45.8866 358.808 44.7609 360.903 43.7716C362.243 43.1316 363.613 42.5516 364.993 42.0316C366.303 41.6841 367.584 41.2327 368.823 40.6816C368.87 40.6545 368.907 40.6119 368.927 40.561C368.947 40.5101 368.949 40.4539 368.933 40.4016C368.703 39.8016 366.353 40.4016 365.933 40.4616C363.107 40.7846 360.266 40.9582 357.423 40.9816C353.553 41.0268 349.691 40.6275 345.913 39.7916C342.173 38.9316 338.193 37.5716 335.153 35.1616C332.743 33.2416 328.943 31.0316 325.843 32.5316C324.023 33.4216 322.653 35.1216 321.243 36.5316C319.771 38.0319 318.145 39.3726 316.393 40.5316C310.435 44.5198 303.835 47.4526 296.883 49.2016C292.308 50.154 287.655 50.6796 282.983 50.7716C281.893 50.7716 280.803 50.8316 279.713 50.8916C279.306 50.8506 278.896 50.9019 278.513 51.0416C277.673 51.6816 279.513 52.0416 279.873 52.1216C280.233 52.2016 280.293 51.6916 279.973 51.6216Z" class="outline"/>
<path d="M309.553 66.2917C310.023 66.7117 312.233 65.4817 313.303 64.7417C314.234 64.099 315.055 63.3086 315.733 62.4017C316.41 61.5563 317.006 60.649 317.513 59.6917C317.68 59.369 317.885 59.067 318.123 58.7917C318.423 58.4517 318.583 58.2617 318.763 58.2717C318.943 58.2817 319.233 58.9517 319.673 60.2717C319.963 61.1417 320.303 61.9917 320.613 62.8517C320.635 62.9326 320.669 63.01 320.713 63.0817C320.923 63.4043 321.226 63.6554 321.583 63.8017C322.583 64.2217 335.083 55.8917 333.303 52.1717C332.303 50.0317 326.603 49.4617 322.383 51.2917C314.793 54.5717 311.433 62.9717 306.303 63.8717C303.833 64.3017 302.053 62.8717 302.573 61.8017C303.283 60.4017 308.023 60.0317 309.383 58.0517C311.003 55.7017 306.283 53.4017 307.213 52.4217C308.143 51.4417 312.703 54.4717 317.653 52.0417C322.323 49.7517 326.213 43.1517 324.913 42.2417C323.613 41.3317 316.673 45.3917 316.533 46.7217C316.353 48.3517 325.933 48.0117 330.253 43.7217C332.633 41.3617 332.963 37.0617 331.903 36.4717C328.623 34.6717 307.663 64.6617 309.553 66.2917Z" fill="#FED0E5"/>
<path d="M309.463 66.4817C310.553 67.0817 312.703 65.4217 313.513 64.8417C315.241 63.4946 316.657 61.7887 317.663 59.8417C317.853 59.5117 318.393 58.3917 318.903 58.6517C319.153 58.7817 319.423 60.1217 319.503 60.3517C319.743 61.4085 320.148 62.4209 320.703 63.3517C321.303 64.1217 321.833 64.0317 322.593 63.6817C325.262 62.3547 327.714 60.6282 329.863 58.5617C331.313 57.2417 334.193 54.7217 333.593 52.4317C333.243 51.1217 331.703 50.5517 330.523 50.2817C328.399 49.8391 326.201 49.9145 324.113 50.5017C319.663 51.6717 316.323 55.0817 313.293 58.3417C312.009 59.8593 310.571 61.24 309.003 62.4617C308.308 62.97 307.529 63.3524 306.703 63.5917C305.773 63.8317 302.273 63.8417 302.703 62.0117C302.883 61.2117 304.343 60.8317 304.973 60.6017C305.863 60.2717 306.773 59.9817 307.633 59.6017C308.803 59.0417 310.163 58.0917 309.873 56.6017C309.717 56.0068 309.426 55.4559 309.023 54.9917C308.583 54.4417 307.573 53.7217 307.383 52.9917C307.093 51.9217 309.033 52.5117 309.573 52.6317C310.535 52.8508 311.51 53.0111 312.493 53.1117C317.223 53.4717 321.033 50.5217 323.613 46.8017C324.213 45.9317 326.923 41.6017 324.033 41.9517C322.552 42.254 321.143 42.8379 319.883 43.6717C318.813 44.2917 317.223 45.1117 316.563 46.2317C315.453 48.1317 320.193 47.7617 320.913 47.6817C324.403 47.3417 328.573 46.1217 330.913 43.2917C332.157 41.7485 332.79 39.8017 332.693 37.8217C332.643 37.1717 332.473 36.2917 331.693 36.1917C330.443 36.0317 328.943 37.7117 328.173 38.4517C323.823 42.6317 320.173 47.7017 316.793 52.6317C315.033 55.1617 313.323 57.7517 311.793 60.4117C310.725 61.9388 309.908 63.6268 309.373 65.4117C309.313 65.7217 309.233 66.1217 309.483 66.4117C309.517 66.4352 309.559 66.4459 309.601 66.4419C309.642 66.438 309.681 66.4196 309.711 66.39C309.74 66.3604 309.759 66.3214 309.763 66.2798C309.767 66.2381 309.756 66.1963 309.733 66.1617C309.193 65.6217 310.583 63.3517 310.823 62.8817C311.903 60.7817 313.153 58.7717 314.433 56.7917C317.636 51.8004 321.153 47.0175 324.963 42.4717C326.335 40.7659 327.854 39.1832 329.503 37.7417C329.996 37.2627 330.576 36.8826 331.213 36.6217C332.303 36.2917 332.383 37.6217 332.353 38.4417C332.193 43.0117 328.353 45.5817 324.353 46.7017C322.698 47.18 320.985 47.4224 319.263 47.4217C318.623 47.4217 316.263 47.4217 317.023 46.3117C317.783 45.2017 319.363 44.4017 320.493 43.7717C321.623 43.1417 323.383 42.0017 324.603 42.2717C325.823 42.5417 324.243 45.2717 323.873 45.8817C322.812 47.6264 321.459 49.1756 319.873 50.4617C317.835 52.1348 315.232 52.9585 312.603 52.7617C311.593 52.6618 310.59 52.4948 309.603 52.2617C309.012 52.0724 308.392 51.9911 307.773 52.0217C307.639 52.0187 307.506 52.0527 307.39 52.12C307.274 52.1872 307.179 52.285 307.115 52.4028C307.051 52.5205 307.021 52.6536 307.027 52.7875C307.034 52.9214 307.077 53.0508 307.153 53.1617C307.733 54.4317 309.263 55.1017 309.583 56.5517C310.073 58.7117 306.833 59.5517 305.363 60.0917C304.493 60.4117 302.913 60.7717 302.503 61.7317C302.093 62.6917 303.313 63.6217 304.163 63.8917C304.872 64.0778 305.612 64.1206 306.338 64.0175C307.064 63.9145 307.763 63.6678 308.393 63.2917C311.393 61.6417 313.463 58.5917 315.833 56.2417C319.143 52.9617 323.073 50.3817 327.883 50.3617C329.463 50.3617 332.413 50.5217 333.203 52.2517C333.693 53.3017 332.943 54.5417 332.353 55.3917C330.461 57.8281 328.156 59.9131 325.543 61.5517C324.591 62.2195 323.588 62.8114 322.543 63.3217C322.28 63.4966 321.977 63.6031 321.663 63.6317C320.563 63.4717 320.123 61.0417 319.843 60.2217C319.643 59.6417 319.423 57.8017 318.463 58.2217C317.783 58.5217 317.383 59.6517 317.033 60.2217C316.355 61.4112 315.524 62.5072 314.563 63.4817C313.938 64.0742 313.25 64.5972 312.513 65.0417C311.933 65.4017 310.333 66.5217 309.633 66.1417C309.61 66.1306 309.586 66.1239 309.561 66.1221C309.536 66.1204 309.511 66.1235 309.488 66.1314C309.464 66.1393 309.442 66.1518 309.423 66.1681C309.404 66.1845 309.389 66.2044 309.378 66.2267C309.366 66.249 309.36 66.2733 309.358 66.2982C309.356 66.3231 309.359 66.3481 309.367 66.3718C309.375 66.3955 309.388 66.4174 309.404 66.4362C309.42 66.4551 309.44 66.4706 309.463 66.4817V66.4817Z" class="outline"/>
<path d="M91.3033 54.9C96.5298 59.015 102.206 62.5241 108.223 65.36C110.486 66.3069 112.653 67.4689 114.693 68.83C116.579 70.2163 118.221 71.9059 119.553 73.83C121.623 76.9524 123.126 80.4154 123.993 84.06C124.083 84.44 124.663 84.28 124.573 83.9C123.173 78.49 120.733 73.2 116.463 69.45C114.682 67.9463 112.695 66.7039 110.563 65.76C107.363 64.25 104.193 62.71 101.143 60.9C97.864 58.9572 94.7171 56.7991 91.7232 54.44C91.4232 54.2 90.9933 54.63 91.3033 54.86V54.9Z" class="outline"/>
<path d="M135.453 19.1C125.388 30.5434 113.772 40.5233 100.943 48.75C97.8166 50.75 94.6232 52.6433 91.3632 54.43C91.2943 54.4698 91.244 54.5353 91.2233 54.6122C91.2027 54.6891 91.2135 54.771 91.2532 54.84C91.293 54.9089 91.3586 54.9593 91.4355 54.9799C91.5124 55.0005 91.5943 54.9898 91.6633 54.95C104.791 47.7474 116.873 38.7845 127.573 28.31C130.42 25.4633 133.177 22.5367 135.843 19.53C136.103 19.24 135.683 18.81 135.423 19.1H135.453Z" class="outline"/>
<path d="M165.213 47.4401C151.32 53.966 139.174 63.696 129.773 75.8301C127.82 78.3367 125.993 80.9334 124.293 83.6201C124.083 83.9501 124.603 84.2501 124.813 83.9301C134.616 68.2453 148.757 55.7402 165.523 47.9301C165.873 47.7601 165.523 47.2501 165.213 47.4101V47.4401Z" class="outline"/>
<path d="M139.383 32.3401C134.533 28.7201 114.523 42.5201 115.843 48.0401C116.583 51.1101 124.313 52.9801 129.943 50.3901C137.943 46.7201 138.183 35.6701 144.203 34.9901C147.093 34.6701 150.003 36.8401 149.833 38.1901C149.603 40.0101 143.833 40.0201 143.063 42.5601C142.133 45.5601 149.123 49.2101 148.423 50.4501C147.723 51.6901 140.583 47.0901 135.513 49.8701C130.743 52.4901 128.963 61.0501 131.013 62.4101C133.063 63.7701 139.863 59.0101 139.413 57.2101C138.873 55.0201 127.033 54.4701 123.633 59.8401C121.413 63.3301 122.853 69.2301 124.973 69.5201C130.253 70.2201 145.443 36.8501 139.383 32.3401Z" fill="#FFE271"/>
<path d="M139.453 32.2301C137.373 30.7701 134.103 32.0501 132.053 32.9001C128.583 34.3886 125.335 36.3506 122.403 38.7301C120.003 40.6401 117.213 42.9901 116.013 45.9001C114.753 48.9901 117.733 50.6601 120.383 51.3101C122.67 51.919 125.073 51.9385 127.37 51.3667C129.666 50.7948 131.779 49.6503 133.513 48.0401C136.513 45.0401 137.793 40.9901 140.303 37.6801C141.643 35.9201 143.433 34.7801 145.723 35.1601C147.023 35.3701 148.933 36.1601 149.533 37.4501C150.133 38.7401 148.533 39.2901 147.593 39.6501C146.153 40.1701 144.143 40.5801 143.223 41.9401C142.453 43.1001 143.043 44.3901 143.793 45.3801C144.933 46.8901 146.533 47.9401 147.793 49.3801C148.433 50.1001 148.473 50.7001 147.353 50.5301C146.429 50.3353 145.517 50.0848 144.623 49.7801C140.383 48.5601 135.893 48.2301 132.893 52.0301C131.648 53.6564 130.777 55.538 130.343 57.5401C129.923 58.9086 129.923 60.3716 130.343 61.7401C131.583 64.6201 136.403 61.1201 137.723 59.9901C138.403 59.4201 139.853 58.2301 139.533 57.1601C139.293 56.3501 138.083 56.0501 137.383 55.8801C133.845 55.077 130.142 55.46 126.843 56.9701C125.048 57.8549 123.644 59.3748 122.905 61.2352C122.166 63.0957 122.144 65.1643 122.843 67.0401C123.183 68.0401 123.843 69.6301 125.193 69.6101C125.837 69.5393 126.44 69.2621 126.913 68.8201C128.983 67.2001 130.463 64.7101 131.783 62.4901C133.633 59.3271 135.26 56.0392 136.653 52.6501C138.12 49.2255 139.294 45.6828 140.163 42.0601C140.733 39.5801 141.333 36.6901 140.653 34.1701C140.486 33.4078 140.071 32.7222 139.473 32.2201C139.353 32.1201 139.173 32.3001 139.293 32.4001C140.873 33.6301 140.753 36.2001 140.593 37.9801C140.244 41.0708 139.54 44.111 138.493 47.0401C136.485 53.4571 133.572 59.5551 129.843 65.1501C128.843 66.5601 127.393 68.8701 125.593 69.3301C123.793 69.7901 123.063 67.1001 122.833 65.8401C122.565 64.642 122.576 63.3983 122.866 62.2053C123.155 61.0122 123.716 59.9018 124.503 58.9601C127.053 56.2601 131.503 55.5801 135.033 55.7701C136.384 55.7219 137.722 56.0434 138.903 56.7001C140.243 57.7001 137.973 59.4701 137.193 60.0901C135.813 61.1701 133.943 62.4201 132.143 62.5001C130.343 62.5801 130.263 60.6301 130.363 59.2801C130.643 55.1901 133.163 50.2801 137.453 49.2801C139.805 48.9196 142.21 49.1463 144.453 49.9401C145.383 50.2001 147.203 51.1401 148.193 50.7601C149.853 50.1201 145.263 46.6101 144.833 46.1501C143.533 44.7901 142.213 42.7701 144.213 41.3501C145.613 40.3501 147.383 40.1701 148.883 39.3501C149.883 38.8401 150.313 38.0801 149.643 37.0801C149.052 36.3292 148.289 35.7306 147.42 35.334C146.55 34.9374 145.598 34.7544 144.643 34.8001C141.513 34.9101 139.773 37.8001 138.403 40.2801C136.403 43.8501 134.493 47.7201 130.773 49.8101C128.44 51.0548 125.801 51.613 123.163 51.4201C121.023 51.3101 118.323 50.8101 116.753 49.2001C114.673 47.0501 117.283 44.0201 118.753 42.3901C121.237 39.7721 124.075 37.5136 127.183 35.6801C129.923 34.0001 133.053 32.2901 136.293 31.9001C137.323 31.7008 138.39 31.8858 139.293 32.4201C139.453 32.5401 139.583 32.3201 139.453 32.2301Z" class="outline"/>
<path d="M135.453 19.5301C141.907 24.8017 148.93 29.3333 156.393 33.0401C159.043 34.4201 161.983 35.8001 164.033 38.0401C166.533 40.7601 166.423 44.3401 165.083 47.6101C164.933 47.9701 165.513 48.1201 165.663 47.7701C166.238 46.5681 166.567 45.2634 166.631 43.9325C166.694 42.6016 166.491 41.2714 166.033 40.0201C165.205 38.2812 163.91 36.8064 162.293 35.7601C159.974 34.231 157.552 32.8644 155.043 31.6701C151.863 30.0101 148.713 28.3001 145.693 26.3701C142.25 24.1715 138.959 21.7426 135.843 19.1001C135.553 18.8601 135.123 19.2801 135.423 19.5301H135.453Z" class="outline"/>
<path d="M8.09017 34.3561C10.9778 29.7487 15.4762 26.3802 20.7102 24.9061C20.7871 24.8849 20.8524 24.834 20.8918 24.7646C20.9312 24.6952 20.9414 24.6131 20.9202 24.5361C20.899 24.4592 20.8481 24.3939 20.7787 24.3545C20.7093 24.3151 20.6271 24.3049 20.5502 24.3261C15.1581 25.8409 10.5235 29.3097 7.55017 34.0561C7.35017 34.3761 7.87018 34.6861 8.07018 34.3561H8.09017Z" class="outline"/>
<path d="M40.9202 12.2761C35.5002 15.4661 33.3002 24.4761 35.9202 26.8661C38.9802 29.6761 49.5802 24.3261 51.9202 19.4661C52.2013 18.9539 52.3717 18.3884 52.4202 17.8061C52.6402 14.1061 47.0202 11.4761 47.6602 10.2861C47.7402 10.1561 47.8002 10.2061 49.6602 9.74613C50.8102 9.45613 50.6602 9.46613 52.6602 8.94613L54.4402 8.48613C55.8102 8.11613 56.5002 7.85613 56.5602 7.96613C56.6202 8.07613 54.2102 9.31613 54.4002 10.1161C54.4702 10.3761 54.8002 10.5061 54.9302 10.5561C57.6402 11.6861 68.4802 8.55613 69.2902 9.14613C70.1002 9.73613 57.9702 12.8561 56.5202 16.2461C55.1602 19.4361 63.6402 22.1561 67.1702 21.2461C70.7002 20.3361 71.4302 15.6161 68.8702 15.4961C65.7702 15.3661 54.0302 21.8661 57.2102 24.8461C59.2802 26.8461 67.6202 27.1761 69.9402 26.0461C70.5202 25.7661 70.6202 25.5361 70.6802 25.3661C71.9702 21.8261 51.2102 6.21613 40.9202 12.2761Z" fill="#CEC9EF"/>
<path d="M40.8602 12.1661C39.2737 13.222 37.9221 14.5938 36.8898 16.1957C35.8574 17.7976 35.1665 19.5951 34.8602 21.4761C34.4702 23.6761 34.4502 26.9661 37.1402 27.6361C40.3902 28.4361 44.3302 26.3261 46.9402 24.6361C49.3502 23.0561 53.1702 20.0961 52.4102 16.7461C51.8954 15.1744 50.9369 13.7852 49.6502 12.7461C49.0869 12.2645 48.5589 11.7431 48.0702 11.1861C47.4202 10.3561 47.9002 10.2861 48.7002 10.0861C50.4502 9.67608 52.1802 9.18608 53.9202 8.74608C54.6102 8.56608 55.2802 8.32608 55.9802 8.16608C56.4402 8.05608 56.4102 7.99608 55.9802 8.25608C55.5502 8.51608 55.3002 8.70608 54.9802 8.95608C54.1602 9.61608 53.8402 10.4061 55.0702 10.7661C56.4173 11.031 57.8031 11.031 59.1502 10.7661C61.0002 10.5361 62.8402 10.1761 64.6702 9.83608C65.3902 9.69608 66.1102 9.56607 66.8302 9.44607C67.4594 9.2614 68.1152 9.18365 68.7702 9.21608C69.2502 9.32608 68.9502 9.39608 68.6002 9.58608C68.021 9.86853 67.4268 10.1189 66.8202 10.3361C65.3402 10.9161 63.8202 11.4861 62.3802 12.1161C60.7848 12.7407 59.2679 13.5495 57.8602 14.5261C57.4142 14.7808 57.0309 15.1322 56.7385 15.5544C56.446 15.9767 56.2519 16.459 56.1702 16.9661C56.1702 19.7661 61.0502 20.9661 63.0802 21.3561C65.9602 21.8861 69.6202 21.5661 70.3402 18.0861C70.4972 17.622 70.4895 17.118 70.3182 16.6589C70.147 16.1999 69.8228 15.8139 69.4002 15.5661C68.4502 15.1761 67.1902 15.6761 66.3002 15.9961C63.2229 17.057 60.407 18.7615 58.0402 20.9961C56.5302 22.5061 55.6602 24.5161 58.0402 25.6561C60.9602 27.0661 65.0402 27.1861 68.2302 26.7061C69.1202 26.5761 70.6302 26.3461 70.8002 25.2461C70.7985 24.566 70.5658 23.9066 70.1402 23.3761C68.5871 21.2407 66.6632 19.4016 64.4602 17.9461C59.0702 13.9961 51.7202 10.0761 44.8102 10.9461C43.4033 11.1076 42.0432 11.5497 40.8102 12.2461C40.6702 12.3261 40.8102 12.5461 40.9302 12.4661C44.8302 10.2361 49.6502 11.0761 53.6702 12.4661C58.0229 14.0218 62.0803 16.3041 65.6702 19.2161C66.7302 20.0561 72.4902 24.5961 69.8002 26.0361C67.9602 27.0361 65.0802 26.7261 63.1002 26.5461C61.4302 26.4061 57.7802 26.1961 56.8802 24.4161C56.0902 22.8961 58.1502 21.1661 59.1702 20.3261C60.9153 18.9247 62.8388 17.7612 64.8902 16.8661C66.1002 16.3261 69.2902 14.7161 70.0402 16.6261C71.0402 19.0961 68.1502 21.2361 66.0402 21.3661C63.5602 21.5261 53.1802 19.1161 57.4802 15.2061C60.4102 12.5161 64.7102 11.5661 68.2002 10.0661C68.5602 9.91608 69.8802 9.47608 69.2002 9.06608C68.9002 8.85608 68.1302 9.06608 67.8002 9.06608C66.7502 9.19608 65.7102 9.40608 64.6602 9.60608C62.1398 10.1756 59.5786 10.5468 57.0002 10.7161C56.2302 10.7161 53.5902 10.6261 55.0002 9.32608C55.3402 9.01608 56.5802 8.53608 56.6302 8.00608C56.6326 7.98381 56.6281 7.96135 56.6174 7.9417C56.6066 7.92204 56.5902 7.90613 56.5702 7.89608C56.1902 7.67608 55.3302 8.12608 54.9802 8.23608C54.2502 8.44608 53.5202 8.61608 52.7802 8.80608L50.1802 9.50608C49.3346 9.57538 48.503 9.76392 47.7102 10.0661C47.1902 10.4261 47.5502 10.9661 47.8702 11.3661C49.0102 12.7861 50.5802 13.7661 51.5402 15.3661C54.2102 19.8061 47.9602 23.9561 44.6402 25.6561C42.0902 26.9661 36.1002 29.4261 35.0702 25.0761C33.9802 20.5061 37.0702 14.7261 40.9402 12.3861C41.1202 12.2961 40.9902 12.0661 40.8602 12.1661Z" class="outline"/>
<path d="M8.46018 25.2661C17.4602 18.1861 27.4602 12.3461 38.4602 9.03613C45.2593 6.95099 52.3507 5.97846 59.4602 6.15613C62.9802 6.25613 66.7302 6.39613 70.0202 7.72613C73.2722 9.03954 76.4012 10.6392 79.3702 12.5061C81.3666 13.8971 83.5612 14.9792 85.8802 15.7161C89.1509 16.5375 92.5576 16.6635 95.8802 16.0861L95.7102 15.6661C89.8474 20.0762 83.6447 24.0151 77.1602 27.4461C74.2902 29.0361 71.3802 30.5461 68.4002 31.9061C65.4677 33.3581 62.3581 34.4204 59.1502 35.0661C58.059 35.3216 56.9214 35.301 55.8402 35.0061C55.184 34.696 54.5665 34.31 54.0002 33.8561C52.7199 33.1486 51.5562 32.248 50.5502 31.1861C50.1989 30.6189 49.6617 30.1912 49.0302 29.9761C48.1302 29.8161 47.7202 30.4761 47.1502 31.0261C45.3907 32.5608 43.1349 33.4062 40.8002 33.4061C37.2802 33.4061 34.1302 31.4061 31.2602 29.5761C28.0402 27.5761 24.8202 25.4061 21.1402 24.2561C17.4602 23.1061 12.5202 22.6261 8.95018 24.3861C4.95018 26.3861 5.71018 31.0461 7.57018 34.3061C7.60658 34.3562 7.66025 34.391 7.72081 34.4037C7.78137 34.4165 7.84452 34.4063 7.89802 34.3752C7.95153 34.3441 7.99158 34.2943 8.01046 34.2353C8.02933 34.1764 8.02567 34.1125 8.00018 34.0561C7.03699 32.5091 6.51485 30.7283 6.49018 28.9061C6.58018 26.1861 8.68018 24.7061 11.1302 24.1661C15.1388 23.3864 19.2899 23.8469 23.0302 25.4861C26.5202 26.9461 29.5602 29.1761 32.7802 31.1161C35.4202 32.7061 38.3702 34.1161 41.5402 33.8761C43.4569 33.6951 45.2903 33.0046 46.8502 31.8761C47.8502 31.1661 48.5002 29.7561 49.8502 31.1461C50.5697 31.9555 51.3668 32.6924 52.2302 33.3461C53.3902 34.1261 54.6702 35.2761 56.0802 35.5961C57.0714 35.7836 58.089 35.7836 59.0802 35.5961C62.0083 35.0334 64.8517 34.0956 67.5402 32.8061C70.5402 31.4961 73.4602 30.0061 76.3302 28.4461C83.2369 24.8705 89.8361 20.7297 96.0602 16.0661C96.2802 15.8861 96.0602 15.6161 95.8202 15.6461C92.494 16.2206 89.083 16.0705 85.8202 15.2061C83.5949 14.4444 81.4877 13.374 79.5602 12.0261C76.6945 10.2403 73.6839 8.69827 70.5602 7.41613C69.1678 6.83489 67.7054 6.4382 66.2102 6.23613C64.3635 5.98946 62.5102 5.82279 60.6502 5.73613C47.3802 5.11613 34.3302 8.88613 22.7502 15.2261C17.6263 18.0554 12.7491 21.3102 8.17018 24.9561C7.92018 25.1561 8.27017 25.5061 8.52017 25.3061L8.46018 25.2661Z" class="outline"/>
<path d="M37.6302 33.446C45.0301 36.3247 53.1167 36.9475 60.8702 35.236C61.1802 35.166 61.0502 34.686 60.7302 34.756C53.0549 36.4431 45.052 35.8202 37.7302 32.966C37.4302 32.846 37.3002 33.326 37.6002 33.446H37.6302Z" class="outline"/>
</svg>
