<svg viewBox="0 0 372 99" fill="none" xmlns="http://www.w3.org/2000/svg"><title>Cover illustration of floating drawings</title><path d="M177.215 71.366a161.382 161.382 0 0 0 42.3-3 145.52 145.52 0 0 0 10.76-2.65 4.643 4.643 0 0 1 1.26-.37c.38.12.36.29.52.66.26.56.53 1.11.81 1.66a19.016 19.016 0 0 0 2.42 3.88 31.853 31.853 0 0 0 14.22 9.28 69.404 69.404 0 0 1 9.67 3.53 43.59 43.59 0 0 1 8.32 5.37l.17-.42a37.931 37.931 0 0 0-10.93.93c-2.86.68-5.6 1.68-8.53 2.1a64.48 64.48 0 0 1-10.94.34 106.087 106.087 0 0 1-10.84-.74c-1.18-.15-2.36-.33-3.54-.53-.63-.11-1.93-.63-2.51-.44-.37.13-.79.77-1.08 1a15.107 15.107 0 0 1-2 1.57 14.108 14.108 0 0 1-11.37 1.83 25.71 25.71 0 0 1-8.64-4.36 30.986 30.986 0 0 1-5.54-4.93c-1.79-2.11-3.3-4.43-5.13-6.52a71.876 71.876 0 0 0-9.18-8.61c-.25-.2-.61.15-.35.35a73.96 73.96 0 0 1 8.57 7.94c1.81 2 3.34 4.17 5 6.28a31.922 31.922 0 0 0 12.53 9.46 16.23 16.23 0 0 0 10.26 1 14.11 14.11 0 0 0 4.57-2.16 17.16 17.16 0 0 0 1.57-1.26c.22-.25.461-.48.72-.69.49-.34 1-.15 1.55 0a100.513 100.513 0 0 0 23 1.44 44.62 44.62 0 0 0 10-1.9 37.843 37.843 0 0 1 12.83-1.46.252.252 0 0 0 .238-.153.255.255 0 0 0 .014-.148.245.245 0 0 0-.072-.13 44.193 44.193 0 0 0-8.83-5.66 89.476 89.476 0 0 0-10.19-3.64 30.01 30.01 0 0 1-10.46-6.14 20.316 20.316 0 0 1-3.56-3.9 34.468 34.468 0 0 1-2.7-5.18.267.267 0 0 0-.29-.11 159.629 159.629 0 0 1-54.6 6.08c-.31-.15-.31.4-.02.4z" class="outline"/><path d="M235.495 80.366c-.45-3.91-23.89-9.8-27.16-7.12-1.83 1.5 1.82 6.34 7.44 8.46 5.24 2 8.19.92 20.88 2.21 5.22.52 8.75.9 8.86 1.92.11 1.02-3.84 3.07-7.77 2.83-4.2-.26-7.34-2.95-7.52-2.66-.18.29 4.41 2.87 4 4.07-.41 1.2-5.53 1.38-9.53-1.06-2.8-1.71-2.55-3.22-4.88-4.48-4.82-2.63-12.7.35-12.37 2 .33 1.65 8.34 3.57 9.4 2.69 1.3-1.08-6-7.67-12.28-7.6-4.08.06-7.57 2.94-6.4 4.19 2.9 3.13 37.9-.58 37.33-5.45z" fill="#B8E6CA"/><path d="M235.645 80.306c-.3-1.9-3.53-3-5-3.64a58.024 58.024 0 0 0-10.65-3.2 33.37 33.37 0 0 0-9.43-1 4.243 4.243 0 0 0-2.34.68c-.9.79-.44 2.11.06 3 2 3.47 6.17 5.61 9.94 6.49 3.07.71 6.3.63 9.44.78 2.84.126 5.677.333 8.51.62 2.68.26 5.69.27 8.25 1.18.24.08.78.24.9.54.22.57-.74 1.11-1.1 1.33a11.257 11.257 0 0 1-4.74 1.42 14 14 0 0 1-8.09-2.11c-.17-.09-1.43-1-1.3-.24.05.3.74.67 1 .84.794.543 1.55 1.141 2.26 1.79.84.83 1 1.52-.29 1.84a9.358 9.358 0 0 1-3.69 0 11.592 11.592 0 0 1-7.34-4.3c-2.8-3.52-8-3.48-11.89-2-.85.32-2.6 1-2.81 2-.18.92 1.16 1.47 1.81 1.76a19.837 19.837 0 0 0 5.24 1.47c.64.09 2.3.45 2.71-.3.41-.75-.74-1.89-1.18-2.35a18.467 18.467 0 0 0-5-3.63c-3.75-1.92-8.93-2.74-12.26.51-1.82 1.78-.16 2.74 1.6 3 2.682.386 5.398.483 8.1.29 3.57-.13 7.15-.47 10.69-.95a79.406 79.406 0 0 0 10.05-1.9c1.94-.52 4.41-1.1 5.92-2.52a1.658 1.658 0 0 0 .66-1.35c0-.19-.31-.19-.3 0 .12 1.49-2.55 2.34-3.57 2.71-2.633.9-5.34 1.57-8.09 2a98.434 98.434 0 0 1-19.15 1.73c-1.8 0-4.2.09-5.85-.79-1.87-1 1.14-2.92 2.06-3.34a10 10 0 0 1 7.57-.23 18.875 18.875 0 0 1 6 3.38c.56.46 3 2.35 2.41 3.25-.59.9-3.62-.1-4.34-.28-1.38-.34-3.56-.76-4.56-1.88-1-1.12 2.26-2.38 3-2.62a13.21 13.21 0 0 1 6.77-.43 7.118 7.118 0 0 1 3.31 1.63c.75.71 1.28 1.62 2 2.35a11.863 11.863 0 0 0 6.13 2.95c1 .19 6.82.68 4.88-1.8a14.988 14.988 0 0 0-3.37-2.78c-.2-.14-.44-.25-.13 0s.52.28.77.42c.764.437 1.552.83 2.36 1.18a12.58 12.58 0 0 0 7.17.79c1.4-.26 3.9-.85 4.71-2.22 1.22-2.08-6.1-2.34-6.95-2.43-4.72-.5-9.43-.8-14.16-1a27.402 27.402 0 0 1-8-1.18 16.4 16.4 0 0 1-6.34-3.86c-.87-.87-3.09-3.37-1.59-4.59a4.522 4.522 0 0 1 2.58-.59 24.952 24.952 0 0 1 4.14.23 64.311 64.311 0 0 1 10.18 2.19 30.508 30.508 0 0 1 8.39 3.46c.63.42 1.45 1 1.58 1.79.1.18.39.1.36-.09zM208.735 96.256a123.217 123.217 0 0 0 44.34-4.46.247.247 0 0 0 .064-.264.25.25 0 0 0-.214-.166 122.935 122.935 0 0 1-44.21 4.44c-.32 0-.32.47 0 .5l.02-.05zM299.553 65.952a59.223 59.223 0 0 0 17.56 3.53 28.61 28.61 0 0 0 11.28-1.61c.3-.11.17-.6-.13-.49a28.322 28.322 0 0 1-11.11 1.6 58.43 58.43 0 0 1-17.43-3.51c-.3-.11-.43.38-.13.48h-.04z" class="outline"/><path d="M279.973 51.622c-.27-.06-.54-.17-.81-.21-.27-.04-.49 0-.07 0 .75 0 1.57-.08 2.33-.1 2.2-.08 4.4-.24 6.6-.33a51.358 51.358 0 0 0 10.73-1.75 62.096 62.096 0 0 0 18.53-8.73 29.595 29.595 0 0 0 4.28-3.62c1.54-1.54 3.14-3.62 5.32-4.22 2.18-.6 4.84.75 6.61 1.91 1.14.75 2.13 1.63 3.33 2.31 6.5 3.71 14.23 4.72 21.61 4.59 2.64-.05 5.28-.26 7.9-.56.671-.018 1.34-.091 2-.22.65-.19-.44-.17-.72-.12a21.22 21.22 0 0 0-3.77 1.36c-6.26 2.51-11.7 6.28-17 10.33a101.115 101.115 0 0 0-9.06 7.6c-1.91 1.85-3.47 3.81-5.68 5.32a28.483 28.483 0 0 1-2.63 1.59c-1 .56-2.12 1.22-3.33 1a7.428 7.428 0 0 1-4.21-3.24 13.48 13.48 0 0 1-2-4.21c-.16-.58-.23-2.07-1-2.22-.77-.15-1.33 1.19-1.54 1.69a12.262 12.262 0 0 1-4.74 5.39c-3.39 2-7.51 2-11.22.89a27.311 27.311 0 0 1-9.94-5.93c-2.62-2.26-5-4.85-7.87-6.81a11.156 11.156 0 0 0-3.6-1.71.251.251 0 0 0-.282.181.25.25 0 0 0 .152.299c3.46.87 6.16 3.76 8.7 6.1 3.06 2.82 6.24 5.61 10.06 7.36a17.358 17.358 0 0 0 11 1.41 12.461 12.461 0 0 0 8.19-6.93c.23-.47.66-1.87 1.22-1.12.314.738.53 1.515.64 2.31a13.915 13.915 0 0 0 2 3.82 8.545 8.545 0 0 0 3.43 2.91c1.72.7 3 .08 4.57-.76a24.537 24.537 0 0 0 6.62-5.16 79.108 79.108 0 0 1 9.93-8.72c2.79-2.14 5.63-4.27 8.58-6.18a52.886 52.886 0 0 1 6.07-3.37c1.34-.64 2.71-1.22 4.09-1.74a25.535 25.535 0 0 0 3.83-1.35.242.242 0 0 0 .11-.28c-.23-.6-2.58 0-3 .06a80.802 80.802 0 0 1-8.51.52 50.547 50.547 0 0 1-11.51-1.19c-3.74-.86-7.72-2.22-10.76-4.63-2.41-1.92-6.21-4.13-9.31-2.63-1.82.89-3.19 2.59-4.6 4a29.925 29.925 0 0 1-4.85 4 62.477 62.477 0 0 1-19.51 8.67 75.493 75.493 0 0 1-13.9 1.57c-1.09 0-2.18.06-3.27.12a2.709 2.709 0 0 0-1.2.15c-.84.64 1 1 1.36 1.08.36.08.42-.43.1-.5z" class="outline"/><path d="M309.553 66.292c.47.42 2.68-.81 3.75-1.55a10.439 10.439 0 0 0 2.43-2.34 17.256 17.256 0 0 0 1.78-2.71c.167-.323.372-.625.61-.9.3-.34.46-.53.64-.52.18.01.47.68.91 2 .29.87.63 1.72.94 2.58.022.08.056.158.1.23.21.322.513.573.87.72 1 .42 13.5-7.91 11.72-11.63-1-2.14-6.7-2.71-10.92-.88-7.59 3.28-10.95 11.68-16.08 12.58-2.47.43-4.25-1-3.73-2.07.71-1.4 5.45-1.77 6.81-3.75 1.62-2.35-3.1-4.65-2.17-5.63.93-.98 5.49 2.05 10.44-.38 4.67-2.29 8.56-8.89 7.26-9.8-1.3-.91-8.24 3.15-8.38 4.48-.18 1.63 9.4 1.29 13.72-3 2.38-2.36 2.71-6.66 1.65-7.25-3.28-1.8-24.24 28.19-22.35 29.82z" fill="#FED0E5"/><path d="M309.463 66.482c1.09.6 3.24-1.06 4.05-1.64a15.17 15.17 0 0 0 4.15-5c.19-.33.73-1.45 1.24-1.19.25.13.52 1.47.6 1.7.24 1.056.645 2.069 1.2 3 .6.77 1.13.68 1.89.33a29.323 29.323 0 0 0 7.27-5.12c1.45-1.32 4.33-3.84 3.73-6.13-.35-1.31-1.89-1.88-3.07-2.15a13.5 13.5 0 0 0-6.41.22c-4.45 1.17-7.79 4.58-10.82 7.84a28.83 28.83 0 0 1-4.29 4.12 7.372 7.372 0 0 1-2.3 1.13c-.93.24-4.43.25-4-1.58.18-.8 1.64-1.18 2.27-1.41.89-.33 1.8-.62 2.66-1 1.17-.56 2.53-1.51 2.24-3a4.006 4.006 0 0 0-.85-1.61c-.44-.55-1.45-1.27-1.64-2-.29-1.07 1.65-.48 2.19-.36.962.219 1.937.38 2.92.48 4.73.36 8.54-2.59 11.12-6.31.6-.87 3.31-5.2.42-4.85-1.481.302-2.89.886-4.15 1.72-1.07.62-2.66 1.44-3.32 2.56-1.11 1.9 3.63 1.53 4.35 1.45 3.49-.34 7.66-1.56 10-4.39a8.085 8.085 0 0 0 1.78-5.47c-.05-.65-.22-1.53-1-1.63-1.25-.16-2.75 1.52-3.52 2.26-4.35 4.18-8 9.25-11.38 14.18-1.76 2.53-3.47 5.12-5 7.78a17.483 17.483 0 0 0-2.42 5c-.06.31-.14.71.11 1a.178.178 0 0 0 .228-.022.184.184 0 0 0 .052-.11.183.183 0 0 0-.03-.118c-.54-.54.85-2.81 1.09-3.28 1.08-2.1 2.33-4.11 3.61-6.09a140.012 140.012 0 0 1 10.53-14.32 37.496 37.496 0 0 1 4.54-4.73 5.378 5.378 0 0 1 1.71-1.12c1.09-.33 1.17 1 1.14 1.82-.16 4.57-4 7.14-8 8.26-1.655.478-3.368.72-5.09.72-.64 0-3 0-2.24-1.11.76-1.11 2.34-1.91 3.47-2.54 1.13-.63 2.89-1.77 4.11-1.5 1.22.27-.36 3-.73 3.61a17.812 17.812 0 0 1-4 4.58 10.25 10.25 0 0 1-7.27 2.3c-1.01-.1-2.013-.267-3-.5a5.164 5.164 0 0 0-1.83-.24.732.732 0 0 0-.746.766c.007.133.05.263.126.374.58 1.27 2.11 1.94 2.43 3.39.49 2.16-2.75 3-4.22 3.54-.87.32-2.45.68-2.86 1.64-.41.96.81 1.89 1.66 2.16a5.516 5.516 0 0 0 4.23-.6c3-1.65 5.07-4.7 7.44-7.05 3.31-3.28 7.24-5.86 12.05-5.88 1.58 0 4.53.16 5.32 1.89.49 1.05-.26 2.29-.85 3.14a26.34 26.34 0 0 1-6.81 6.16 22.145 22.145 0 0 1-3 1.77 1.902 1.902 0 0 1-.88.31c-1.1-.16-1.54-2.59-1.82-3.41-.2-.58-.42-2.42-1.38-2-.68.3-1.08 1.43-1.43 2a15.756 15.756 0 0 1-2.47 3.26 11.953 11.953 0 0 1-2.05 1.56c-.58.36-2.18 1.48-2.88 1.1a.186.186 0 0 0-.145-.01.192.192 0 0 0-.11.095.184.184 0 0 0 .026.21.179.179 0 0 0 .059.045zM91.303 54.9a87.999 87.999 0 0 0 16.92 10.46 38.283 38.283 0 0 1 6.47 3.47 21.135 21.135 0 0 1 4.86 5 31.856 31.856 0 0 1 4.44 10.23c.09.38.67.22.58-.16-1.4-5.41-3.84-10.7-8.11-14.45a24.554 24.554 0 0 0-5.9-3.69c-3.2-1.51-6.37-3.05-9.42-4.86a86.284 86.284 0 0 1-9.42-6.46c-.3-.24-.73.19-.42.42v.04z" class="outline"/><path d="M135.453 19.1a163.494 163.494 0 0 1-34.51 29.65c-3.126 2-6.32 3.893-9.58 5.68a.3.3 0 0 0 .3.52 164.33 164.33 0 0 0 35.91-26.64 200.881 200.881 0 0 0 8.27-8.78c.26-.29-.16-.72-.42-.43h.03zM165.213 47.44a97.004 97.004 0 0 0-35.44 28.39 97.428 97.428 0 0 0-5.48 7.79c-.21.33.31.63.52.31a95.623 95.623 0 0 1 40.71-36c.35-.17 0-.68-.31-.52v.03z" class="outline"/><path d="M139.383 32.34c-4.85-3.62-24.86 10.18-23.54 15.7.74 3.07 8.47 4.94 14.1 2.35 8-3.67 8.24-14.72 14.26-15.4 2.89-.32 5.8 1.85 5.63 3.2-.23 1.82-6 1.83-6.77 4.37-.93 3 6.06 6.65 5.36 7.89-.7 1.24-7.84-3.36-12.91-.58-4.77 2.62-6.55 11.18-4.5 12.54 2.05 1.36 8.85-3.4 8.4-5.2-.54-2.19-12.38-2.74-15.78 2.63-2.22 3.49-.78 9.39 1.34 9.68 5.28.7 20.47-32.67 14.41-37.18z" fill="#FFE271"/><path d="M139.453 32.23c-2.08-1.46-5.35-.18-7.4.67a40.904 40.904 0 0 0-9.65 5.83c-2.4 1.91-5.19 4.26-6.39 7.17-1.26 3.09 1.72 4.76 4.37 5.41a14.004 14.004 0 0 0 13.13-3.27c3-3 4.28-7.05 6.79-10.36 1.34-1.76 3.13-2.9 5.42-2.52 1.3.21 3.21 1 3.81 2.29.6 1.29-1 1.84-1.94 2.2-1.44.52-3.45.93-4.37 2.29-.77 1.16-.18 2.45.57 3.44 1.14 1.51 2.74 2.56 4 4 .64.72.68 1.32-.44 1.15a23.474 23.474 0 0 1-2.73-.75c-4.24-1.22-8.73-1.55-11.73 2.25a13.915 13.915 0 0 0-2.55 5.51 7.158 7.158 0 0 0 0 4.2c1.24 2.88 6.06-.62 7.38-1.75.68-.57 2.13-1.76 1.81-2.83-.24-.81-1.45-1.11-2.15-1.28a16.53 16.53 0 0 0-10.54 1.09 8.083 8.083 0 0 0-4 10.07c.34 1 1 2.59 2.35 2.57a2.999 2.999 0 0 0 1.72-.79c2.07-1.62 3.55-4.11 4.87-6.33a78.901 78.901 0 0 0 4.87-9.84 65.979 65.979 0 0 0 3.51-10.59c.57-2.48 1.17-5.37.49-7.89a3.534 3.534 0 0 0-1.18-1.95c-.12-.1-.3.08-.18.18 1.58 1.23 1.46 3.8 1.3 5.58a40.375 40.375 0 0 1-2.1 9.06 70.755 70.755 0 0 1-8.65 18.11c-1 1.41-2.45 3.72-4.25 4.18-1.8.46-2.53-2.23-2.76-3.49a7.997 7.997 0 0 1 1.67-6.88c2.55-2.7 7-3.38 10.53-3.19a7.418 7.418 0 0 1 3.87.93c1.34 1-.93 2.77-1.71 3.39-1.38 1.08-3.25 2.33-5.05 2.41-1.8.08-1.88-1.87-1.78-3.22.28-4.09 2.8-9 7.09-10a14.43 14.43 0 0 1 7 .66c.93.26 2.75 1.2 3.74.82 1.66-.64-2.93-4.15-3.36-4.61-1.3-1.36-2.62-3.38-.62-4.8 1.4-1 3.17-1.18 4.67-2 1-.51 1.43-1.27.76-2.27a5.999 5.999 0 0 0-5-2.28c-3.13.11-4.87 3-6.24 5.48-2 3.57-3.91 7.44-7.63 9.53a14 14 0 0 1-7.61 1.61c-2.14-.11-4.84-.61-6.41-2.22-2.08-2.15.53-5.18 2-6.81a38.791 38.791 0 0 1 8.43-6.71c2.74-1.68 5.87-3.39 9.11-3.78a4.29 4.29 0 0 1 3 .52c.16.12.29-.1.16-.19zM135.453 19.53a111.526 111.526 0 0 0 20.94 13.51c2.65 1.38 5.59 2.76 7.64 5 2.5 2.72 2.39 6.3 1.05 9.57-.15.36.43.51.58.16a10.006 10.006 0 0 0 .37-7.75 10.4 10.4 0 0 0-3.74-4.26 60.071 60.071 0 0 0-7.25-4.09c-3.18-1.66-6.33-3.37-9.35-5.3a90.716 90.716 0 0 1-9.85-7.27c-.29-.24-.72.18-.42.43h.03zM8.09 34.356a21.9 21.9 0 0 1 12.62-9.45.3.3 0 1 0-.16-.58 22.53 22.53 0 0 0-13 9.73c-.2.32.32.63.52.3h.02z" class="outline"/><path d="M40.92 12.276c-5.42 3.19-7.62 12.2-5 14.59 3.06 2.81 13.66-2.54 16-7.4a4.17 4.17 0 0 0 .5-1.66c.22-3.7-5.4-6.33-4.76-7.52.08-.13.14-.08 2-.54 1.15-.29 1-.28 3-.8l1.78-.46c1.37-.37 2.06-.63 2.12-.52.06.11-2.35 1.35-2.16 2.15.07.26.4.39.53.44 2.71 1.13 13.55-2 14.36-1.41.81.59-11.32 3.71-12.77 7.1-1.36 3.19 7.12 5.91 10.65 5 3.53-.91 4.26-5.63 1.7-5.75-3.1-.13-14.84 6.37-11.66 9.35 2.07 2 10.41 2.33 12.73 1.2.58-.28.68-.51.74-.68 1.29-3.54-19.47-19.15-29.76-13.09z" fill="#CEC9EF"/><path d="M40.86 12.166a13.857 13.857 0 0 0-6 9.31c-.39 2.2-.41 5.49 2.28 6.16 3.25.8 7.19-1.31 9.8-3 2.41-1.58 6.23-4.54 5.47-7.89a8.57 8.57 0 0 0-2.76-4 15.513 15.513 0 0 1-1.58-1.56c-.65-.83-.17-.9.63-1.1 1.75-.41 3.48-.9 5.22-1.34.69-.18 1.36-.42 2.06-.58.46-.11.43-.17 0 .09s-.68.45-1 .7c-.82.66-1.14 1.45.09 1.81 1.347.265 2.733.265 4.08 0 1.85-.23 3.69-.59 5.52-.93.72-.14 1.44-.27 2.16-.39a5.86 5.86 0 0 1 1.94-.23c.48.11.18.18-.17.37-.579.283-1.173.533-1.78.75-1.48.58-3 1.15-4.44 1.78a22 22 0 0 0-4.52 2.41 3.439 3.439 0 0 0-1.69 2.44c0 2.8 4.88 4 6.91 4.39 2.88.53 6.54.21 7.26-3.27a2.13 2.13 0 0 0-.94-2.52c-.95-.39-2.21.11-3.1.43a22.907 22.907 0 0 0-8.26 5c-1.51 1.51-2.38 3.52 0 4.66 2.92 1.41 7 1.53 10.19 1.05.89-.13 2.4-.36 2.57-1.46a3 3 0 0 0-.66-1.87 22.06 22.06 0 0 0-5.68-5.43c-5.39-3.95-12.74-7.87-19.65-7a10.59 10.59 0 0 0-4 1.3c-.14.08 0 .3.12.22 3.9-2.23 8.72-1.39 12.74 0a40.898 40.898 0 0 1 12 6.75c1.06.84 6.82 5.38 4.13 6.82-1.84 1-4.72.69-6.7.51-1.67-.14-5.32-.35-6.22-2.13-.79-1.52 1.27-3.25 2.29-4.09a25.285 25.285 0 0 1 5.72-3.46c1.21-.54 4.4-2.15 5.15-.24 1 2.47-1.89 4.61-4 4.74-2.48.16-12.86-2.25-8.56-6.16 2.93-2.69 7.23-3.64 10.72-5.14.36-.15 1.68-.59 1-1-.3-.21-1.07 0-1.4 0-1.05.13-2.09.34-3.14.54-2.52.57-5.081.94-7.66 1.11-.77 0-3.41-.09-2-1.39.34-.31 1.58-.79 1.63-1.32a.11.11 0 0 0-.06-.11c-.38-.22-1.24.23-1.59.34-.73.21-1.46.38-2.2.57l-2.6.7a8.999 8.999 0 0 0-2.47.56c-.52.36-.16.9.16 1.3 1.14 1.42 2.71 2.4 3.67 4 2.67 4.44-3.58 8.59-6.9 10.29-2.55 1.31-8.54 3.77-9.57-.58-1.09-4.57 2-10.35 5.87-12.69.18-.09.05-.32-.08-.22z" class="outline"/><path d="M8.46 25.266c9-7.08 19-12.92 30-16.23a66 66 0 0 1 21-2.88c3.52.1 7.27.24 10.56 1.57a59.245 59.245 0 0 1 9.35 4.78 24.216 24.216 0 0 0 6.51 3.21c3.27.822 6.678.947 10 .37l-.17-.42a138.997 138.997 0 0 1-18.55 11.78c-2.87 1.59-5.78 3.1-8.76 4.46a37.54 37.54 0 0 1-9.25 3.16 6.74 6.74 0 0 1-3.31-.06 9.286 9.286 0 0 1-1.84-1.15 14.24 14.24 0 0 1-3.45-2.67 2.88 2.88 0 0 0-1.52-1.21c-.9-.16-1.31.5-1.88 1.05a9.66 9.66 0 0 1-6.35 2.38c-3.52 0-6.67-2-9.54-3.83-3.22-2-6.44-4.17-10.12-5.32-3.68-1.15-8.62-1.63-12.19.13-4 2-3.24 6.66-1.38 9.92a.25.25 0 0 0 .43-.25 10 10 0 0 1-1.51-5.15c.09-2.72 2.19-4.2 4.64-4.74a20.09 20.09 0 0 1 11.9 1.32c3.49 1.46 6.53 3.69 9.75 5.63 2.64 1.59 5.59 3 8.76 2.76a10.79 10.79 0 0 0 5.31-2c1-.71 1.65-2.12 3-.73.72.81 1.517 1.546 2.38 2.2 1.16.78 2.44 1.93 3.85 2.25a8.07 8.07 0 0 0 3 0 34.709 34.709 0 0 0 8.46-2.79c3-1.31 5.92-2.8 8.79-4.36a141.042 141.042 0 0 0 19.73-12.38c.22-.18 0-.45-.24-.42a23.458 23.458 0 0 1-10-.44 25.117 25.117 0 0 1-6.26-3.18 60.336 60.336 0 0 0-9-4.61 17.31 17.31 0 0 0-4.35-1.18 64.729 64.729 0 0 0-5.56-.5c-13.27-.62-26.32 3.15-37.9 9.49a104.504 104.504 0 0 0-14.58 9.73c-.25.2.1.55.35.35l-.06-.04z" class="outline"/><path d="M37.63 33.446a40.2 40.2 0 0 0 23.24 1.79c.31-.07.18-.55-.14-.48a39.8 39.8 0 0 1-23-1.79c-.3-.12-.43.36-.13.48h.03z" class="outline"/></svg>