<svg xmlns="http://www.w3.org/2000/svg" viewBox="0 0 440 115.0788">
<title>Neurodiversity in Albertopolis Logo</title>
<defs><style>.cls-1,.cls-3{isolation:isolate;}.cls-2{font-size:22.3px;font-family:IBMPlexSans, IBM Plex Sans;}.cls-3{fill:none;stroke:#1d1d1b;stroke-miterlimit:10;stroke-width:0.35px;mix-blend-mode:screen;}.cls-4{fill:#70bd89;}.cls-10,.cls-4,.cls-5,.cls-6,.cls-7,.cls-8,.cls-9{mix-blend-mode:multiply;}.cls-5{fill:#939ed0;}.cls-6{fill:#ffed00;}.cls-7{fill:#36a9e1;}.cls-8{fill:#b17f4a;}.cls-9{fill:#f6b095;}.cls-10{fill:#a6a6a5;}</style></defs><g class="cls-1"><g id="Layer_1" data-name="Layer 1"><text class="cls-2" transform="translate(22.1856 60.8981) rotate(23.3171)">N</text><text class="cls-2" transform="translate(37.539 67.3381) rotate(20.9222)">E</text><text class="cls-2" transform="translate(49.8868 72.3206) rotate(18.5061)">U</text><text class="cls-2" transform="translate(64.9226 77.2171) rotate(15.7456)">R</text><text class="cls-2" transform="translate(79.127 81.2327) rotate(12.795)">O</text><text class="cls-2" transform="matrix(0.9861, 0.1664, -0.1664, 0.9861, 95.2773, 84.8701)">D</text><text class="cls-2" transform="translate(110.2913 87.3857) rotate(7.0686)">I</text><text class="cls-2" transform="translate(119.9668 88.5474) rotate(4.5514)">V</text><text class="cls-2" transform="translate(134.2329 89.6744) rotate(1.6271)">E</text><text class="cls-2" transform="translate(147.9579 90.0601) rotate(-1.3158)">R</text><text class="cls-2" transform="translate(162.8999 89.6805) rotate(-4.1242)">S</text><text class="cls-2" transform="translate(176.4121 88.6554) rotate(-6.259)">I</text><text class="cls-2" transform="matrix(0.9896, -0.1435, 0.1435, 0.9896, 186.0689, 87.6767)">T</text><text class="cls-2" transform="translate(199.6101 85.7101) rotate(-10.3811)">Y</text><text class="cls-2" transform="translate(212.7245 83.1784) rotate(-11.6312)"> </text><text class="cls-2" transform="matrix(0.9771, -0.2127, 0.2127, 0.9771, 218.0647, 82.0782)"> </text><text class="cls-2" transform="translate(223.3926 80.9283) rotate(-13.057)">I</text><text class="cls-2" transform="translate(232.2129 78.9069) rotate(-14.114)">N</text><text class="cls-2" transform="matrix(0.9672, -0.2542, 0.2542, 0.9672, 247.6704, 74.9865)"> </text><text class="cls-2" transform="translate(252.9876 73.5872) rotate(-14.9222)"> </text><text class="cls-2" transform="translate(258.2778 72.1794) rotate(-15.0667)">A</text><text class="cls-2" transform="matrix(0.9668, -0.2553, 0.2553, 0.9668, 272.6019, 68.4058)">L</text><text class="cls-2" transform="translate(283.536 65.4066) rotate(-13.9557)">B</text><text class="cls-2" transform="matrix(0.9768, -0.2142, 0.2142, 0.9768, 297.7736, 61.8651)">E</text><text class="cls-2" transform="translate(310.5484 59.0366) rotate(-10.0214)">R</text><text class="cls-2" transform="translate(323.9425 56.6367) rotate(-7.0685)">T</text><text class="cls-2" transform="translate(335.8118 55.0697) rotate(-3.1637)">O</text><text class="cls-2" transform="translate(351.3236 54.2604) rotate(1.8591)">P</text><text class="cls-2" transform="matrix(0.9913, 0.1315, -0.1315, 0.9913, 364.5402, 54.6237)">O</text><text class="cls-2" transform="translate(379.8625 56.7663) rotate(13.1211)">L</text><text class="cls-2" transform="matrix(0.954, 0.2996, -0.2996, 0.954, 390.8553, 59.2864)">I</text><text class="cls-2" transform="translate(399.3081 61.9118) rotate(21.9226)">S</text><path class="cls-3" d="M73.0778,38.2972c-13.3535-2.8926-27.8379-3.846-40.2,1.9725S13.06,58.0457,17.0577,71.1111c3.8047,12.4356,15.9993,19.9247,31.3334,21.5,20.26,2.0814,33.6332-1.8061,41.24-6.47a19.8361,19.8361,0,0,0,6.8455-6.6288c.783-1.2921,3.1561-5.4133,2.2583-10.2413a7.7517,7.7517,0,0,0-7.3206-6.7574,9.74,9.74,0,0,0-6.0065,1.3139c-4.2409,2.5139-5.0693,7.5073-5.35,9.1976a16.7635,16.7635,0,0,0,1.5955,9.9485,21.9263,21.9263,0,0,0,4.74,6.4055,42.5183,42.5183,0,0,0,8.7753,6.7339,70.9267,70.9267,0,0,0,22.0161,9.4192c1.6752.3763,36.254,8.3138,57.8585-12.9019,3.4566-3.3944,3.8684-4.86,7.0176-9.823a167.4429,167.4429,0,0,1,10.9932-15.3333c8.1655-10.1607,13.7013-17.049,23.2683-20.9813a42.8094,42.8094,0,0,1,16.5231-3.0763,30.2159,30.2159,0,0,1,8.4057,1.4058,29.3319,29.3319,0,0,1,9.8546,5.4905,20.96,20.96,0,0,1,3.66,4.2233c7.3539,11.2623,3.2667,29.5481-5.9114,40.4569-13.6945,16.277-38.7612,16.1747-54.1109,8.6224-3.3916-1.6687-10.341-5.033-14.782-12.67-4.4081-7.5805-3.938-15.1509-3.5162-20.7357,1.5918-21.0772,14.503-35.6314,16.421-37.7349,18.1767-19.9347,43.0232-21.654,49.7008-22.11,4.99-.3412,26.3182-1.3229,47.0652,11.0418,10.6633,6.3551,21.6248,17.251,43.5478,39.0429,3.54,3.5189,9.9207,9.9271,20.3488,13.7739,2.8285,1.0433,8.7275,2.6326,19.3769,3.0291,13.414.4993,35.6016,1.3253,46.4317-13.1427,6.01-8.0295,9.1126-21.5487,2.9563-30.4085-4.2268-6.0829-11.2116-7.6647-12.2478-7.8836-9.105-1.9239-16.3072,3.2822-18.583,4.9273a30.17,30.17,0,0,0-12.0621,26.2807c.9478,12.5826,10.01,20.1632,14.1365,23.585a41.6361,41.6361,0,0,0,11.97,6.9345,40.2767,40.2767,0,0,0,13.8306,2.4681"/><circle class="cls-4" cx="72.7696" cy="38.2995" r="12.7952"/><circle class="cls-5" cx="119.5314" cy="105.8546" r="9.2235"/><circle class="cls-6" cx="187.8361" cy="38.7325" r="6.4206"/><circle class="cls-7" cx="250.3729" cy="92.9619" r="2.9521"/><circle class="cls-8" cx="279.5836" cy="16.3307" r="14.2909"/><circle class="cls-9" cx="355.8634" cy="74.9976" r="10.7639"/><circle class="cls-10" cx="407.4207" cy="88.1717" r="3.7542"/></g></g></svg>