<svg xmlns="http://www.w3.org/2000/svg" class="footer__pattern" viewBox="0 0 440 113.039">
<title>Abstract pattern</title>
<g style="isolation:isolate">
<g id="Layer_1" data-name="Layer 1"><path d="M73.0778,36.2574c-13.3535-2.8926-27.8379-3.846-40.2,1.9725S13.06,56.0059,17.0577,69.0713c3.8047,12.4355,15.9993,19.9246,31.3334,21.5,20.26,2.0814,33.6332-1.8061,41.24-6.47a19.8361,19.8361,0,0,0,6.8455-6.6288c.783-1.2922,3.1561-5.4134,2.2583-10.2413a7.7517,7.7517,0,0,0-7.3206-6.7574,9.7389,9.7389,0,0,0-6.0065,1.3139c-4.2409,2.5139-5.0693,7.5073-5.35,9.1976a16.7635,16.7635,0,0,0,1.5955,9.9485,21.9244,21.9244,0,0,0,4.74,6.4054,42.5154,42.5154,0,0,0,8.7753,6.734,70.9267,70.9267,0,0,0,22.0161,9.4192c1.6752.3763,36.254,8.3138,57.8585-12.9019,3.4566-3.3944,3.8684-4.86,7.0176-9.8231a167.4436,167.4436,0,0,1,10.9932-15.3332c8.1655-10.1607,13.7013-17.049,23.2683-20.9813a42.8073,42.8073,0,0,1,16.5231-3.0763,30.2159,30.2159,0,0,1,8.4057,1.4058,29.332,29.332,0,0,1,9.8546,5.49,20.9641,20.9641,0,0,1,3.66,4.2234c7.3539,11.2622,3.2667,29.548-5.9114,40.4569-13.6945,16.277-38.7612,16.1747-54.1109,8.6224-3.3916-1.6687-10.341-5.0331-14.782-12.67-4.4081-7.58-3.938-15.1508-3.5162-20.7356,1.5918-21.0772,14.503-35.6315,16.421-37.7349,18.1767-19.9347,43.0232-21.654,49.7008-22.11,4.99-.3412,26.3182-1.3229,47.0652,11.0417,10.6633,6.3551,21.6248,17.2511,43.5478,39.043,3.54,3.5188,9.9207,9.9271,20.3488,13.7738,2.8285,1.0434,8.7275,2.6327,19.3769,3.0292,13.414.4993,35.6016,1.3253,46.4317-13.1427,6.01-8.0295,9.1126-21.5487,2.9563-30.4085-4.2268-6.0829-11.2116-7.6647-12.2478-7.8837-9.105-1.9238-16.3072,3.2823-18.583,4.9273a30.17,30.17,0,0,0-12.0621,26.2807c.9478,12.5827,10.01,20.1633,14.1365,23.5851a41.6386,41.6386,0,0,0,11.97,6.9345,40.2792,40.2792,0,0,0,13.8306,2.4681" style="fill:none;stroke:#1d1d1b;stroke-miterlimit:10;stroke-width:0.35000000000000003px;mix-blend-mode:screen;isolation:isolate"/><circle cx="72.7696" cy="36.2597" r="12.7952" style="fill:#70bd89;mix-blend-mode:multiply"/><circle cx="119.5314" cy="103.8148" r="9.2235" style="fill:#939ed0;mix-blend-mode:multiply"/><circle cx="292.319" cy="89.8863" r="9.2235" style="fill:#939ed0;mix-blend-mode:multiply"/><circle cx="187.8361" cy="36.6927" r="6.4206" style="fill:#ffed00;mix-blend-mode:multiply"/><circle cx="425.6494" cy="49.0549" r="6.4206" style="fill:#ffed00;mix-blend-mode:multiply"/><circle cx="250.3729" cy="90.9221" r="2.9521" style="fill:#36a9e1;mix-blend-mode:multiply"/><circle cx="17.9259" cy="52.9235" r="2.9521" style="fill:#36a9e1;mix-blend-mode:multiply"/><circle cx="279.5836" cy="14.2909" r="14.2909" style="fill:#b17f4a;mix-blend-mode:multiply"/><circle cx="355.8634" cy="72.9578" r="10.7639" style="fill:#f6b095;mix-blend-mode:multiply"/><circle cx="125.6412" cy="14.2909" r="10.7639" style="fill:#f6b095;mix-blend-mode:multiply"/><circle cx="407.4207" cy="86.1319" r="3.7542" style="fill:#a6a6a5;mix-blend-mode:multiply"/></g></g></svg>